<?xml version="1.0" encoding="UTF-8"?>
<svg xmlns="http://www.w3.org/2000/svg" xmlns:xlink="http://www.w3.org/1999/xlink" width="40px" height="px" viewBox="0 0 40 40" version="1.1">
<defs>
<filter id="alpha" filterUnits="objectBoundingBox" x="0%" y="0%" width="100%" height="100%">
  <feColorMatrix type="matrix" in="SourceGraphic" values="0 0 0 0 1 0 0 0 0 1 0 0 0 0 1 0 0 0 1 0"/>
</filter>
<mask id="mask0">
  <g filter="url(#alpha)">
<rect x="0" y="0" width="40" height="40" style="fill:rgb(0%,0%,0%);fill-opacity:0.952941;stroke:none;"/>
  </g>
</mask>
<clipPath id="clip1">
  <rect x="0" y="0" width="40" height="40"/>
</clipPath>
<g id="surface5" clip-path="url(#clip1)">
<path style=" stroke:none;fill-rule:evenodd;fill:rgb(41.176471%,70.588235%,17.647059%);fill-opacity:1;" d="M 19.335938 -0.0390625 C 19.386719 -0.0390625 19.441406 -0.0390625 19.492188 -0.0390625 C 19.886719 0.191406 20.261719 0.449219 20.625 0.742188 C 20.832031 1.003906 21.042969 1.261719 21.25 1.523438 C 21.410156 1.902344 21.542969 2.292969 21.640625 2.695312 C 21.941406 3.046875 22.238281 3.398438 22.539062 3.75 C 22.765625 3.832031 22.984375 3.921875 23.203125 4.023438 C 23.992188 3.84375 24.789062 3.6875 25.585938 3.554688 C 25.585938 3.398438 25.585938 3.242188 25.585938 3.085938 C 27.488281 3.164062 29.390625 3.269531 31.289062 3.398438 C 31.066406 4.445312 30.84375 5.488281 30.625 6.523438 C 31.144531 6.296875 31.679688 6.101562 32.226562 5.9375 C 33.050781 5.363281 33.882812 4.800781 34.726562 4.257812 C 34.773438 4.273438 34.8125 4.300781 34.84375 4.335938 C 34.910156 4.652344 34.894531 4.964844 34.804688 5.273438 C 33.859375 5.933594 32.910156 6.585938 31.953125 7.226562 C 31.914062 9.074219 31.902344 10.925781 31.914062 12.773438 C 31.8125 12.785156 31.71875 12.761719 31.640625 12.695312 C 31.628906 10.976562 31.589844 9.257812 31.523438 7.539062 C 31.476562 7.554688 31.4375 7.582031 31.40625 7.617188 C 31.367188 10.300781 31.355469 12.980469 31.367188 15.664062 C 31.265625 15.675781 31.171875 15.652344 31.09375 15.585938 C 31.066406 13.007812 31.042969 10.429688 31.015625 7.851562 C 30.699219 8.191406 30.363281 8.503906 30 8.789062 C 29.832031 9.4375 29.675781 10.089844 29.53125 10.742188 C 29.378906 12.800781 29.222656 14.855469 29.0625 16.914062 C 28.894531 17.539062 28.722656 18.164062 28.554688 18.789062 C 28.582031 18.839844 28.605469 18.894531 28.632812 18.945312 C 29.457031 18.617188 30.277344 18.277344 31.09375 17.929688 C 32.242188 16.066406 33.375 14.191406 34.492188 12.304688 C 34.382812 11.929688 34.277344 11.550781 34.179688 11.171875 C 34.5 10.59375 34.75 9.980469 34.921875 9.335938 C 35.003906 8.816406 35.042969 8.296875 35.039062 7.773438 C 35.117188 7.773438 35.195312 7.773438 35.273438 7.773438 C 35.398438 8.867188 35.230469 9.90625 34.765625 10.898438 C 34.707031 11.15625 34.796875 11.351562 35.039062 11.484375 C 35.117188 11.535156 35.195312 11.535156 35.273438 11.484375 C 35.925781 11.105469 36.574219 10.730469 37.226562 10.351562 C 37.332031 10.847656 37.332031 11.339844 37.226562 11.835938 C 36.902344 12.089844 36.5625 12.324219 36.210938 12.539062 C 36.132812 14.152344 36.105469 15.765625 36.132812 17.382812 C 36.03125 17.394531 35.9375 17.371094 35.859375 17.304688 C 35.832031 15.820312 35.808594 14.335938 35.78125 12.851562 C 35.664062 12.910156 35.558594 12.988281 35.46875 13.085938 C 35.359375 13.332031 35.226562 13.566406 35.078125 13.789062 C 35.050781 16.339844 35.027344 18.894531 35 21.445312 C 34.921875 21.511719 34.828125 21.535156 34.726562 21.523438 C 34.738281 19.207031 34.726562 16.886719 34.6875 14.570312 C 33.835938 16.148438 33 17.734375 32.1875 19.335938 C 31.105469 20.519531 30.027344 21.707031 28.945312 22.890625 C 28.382812 23.210938 27.8125 23.507812 27.226562 23.789062 C 26.980469 24.507812 26.761719 25.238281 26.5625 25.976562 C 26.492188 26.734375 26.441406 27.488281 26.40625 28.242188 C 27.148438 28.054688 27.890625 27.859375 28.632812 27.65625 C 29.191406 27.148438 29.753906 26.640625 30.3125 26.132812 C 30.699219 25.472656 31.105469 24.820312 31.523438 24.179688 C 31.785156 24.242188 31.902344 24.398438 31.875 24.648438 C 31.453125 25.253906 31.0625 25.878906 30.703125 26.523438 C 30.117188 27.085938 29.554688 27.671875 29.023438 28.28125 C 29.164062 28.320312 29.292969 28.296875 29.414062 28.203125 C 29.757812 27.9375 30.121094 27.703125 30.507812 27.5 C 30.777344 27.050781 31.078125 26.621094 31.40625 26.210938 C 31.445312 26.289062 31.484375 26.367188 31.523438 26.445312 C 31.300781 26.886719 31.082031 27.332031 30.859375 27.773438 C 30.371094 28.128906 29.863281 28.453125 29.335938 28.75 C 28.816406 28.777344 28.292969 28.800781 27.773438 28.828125 C 27.289062 29.011719 26.792969 29.15625 26.289062 29.257812 C 26.179688 30.792969 26.117188 32.328125 26.09375 33.867188 C 26.804688 35.902344 27.519531 37.933594 28.242188 39.960938 C 26.289062 39.960938 24.335938 39.960938 22.382812 39.960938 C 21.96875 37.980469 21.539062 36 21.09375 34.023438 C 21.101562 32.421875 21.167969 30.820312 21.289062 29.21875 C 21.261719 29.128906 21.238281 29.035156 21.210938 28.945312 C 20.710938 29.160156 20.214844 29.148438 19.726562 28.90625 C 18.507812 27.859375 17.296875 26.804688 16.09375 25.742188 C 15.527344 26.03125 14.96875 26.332031 14.414062 26.640625 C 15.394531 27.097656 16.347656 27.605469 17.265625 28.164062 C 17.390625 28.332031 17.492188 28.515625 17.578125 28.710938 C 17.890625 31.046875 18.097656 33.390625 18.203125 35.742188 C 17.726562 36.605469 17.039062 36.824219 16.132812 36.40625 C 15.808594 36.1875 15.613281 35.886719 15.546875 35.507812 C 15.359375 33.679688 15.152344 31.859375 14.921875 30.039062 C 13.664062 29.363281 12.402344 28.699219 11.132812 28.046875 C 10.5625 27.519531 10.160156 26.878906 9.921875 26.132812 C 9.527344 26.398438 9.371094 26.292969 9.453125 25.820312 C 10.820312 25.011719 12.214844 24.257812 13.632812 23.554688 C 13.78125 23.5625 13.875 23.640625 13.90625 23.789062 C 14.640625 23.316406 15.421875 22.953125 16.25 22.695312 C 16.613281 22.710938 16.941406 22.828125 17.226562 23.046875 C 18.179688 23.90625 19.140625 24.753906 20.117188 25.585938 C 20.167969 24.980469 20.246094 24.382812 20.351562 23.789062 C 20.617188 23.714844 20.863281 23.609375 21.09375 23.476562 C 21.902344 22.070312 22.707031 20.664062 23.515625 19.257812 C 24.03125 17.84375 24.5 16.410156 24.921875 14.960938 C 25.042969 12.382812 25.132812 9.804688 25.195312 7.226562 C 24.675781 7.128906 24.15625 7.050781 23.632812 6.992188 C 23.644531 9.648438 23.632812 12.304688 23.59375 14.960938 C 23.515625 15.027344 23.421875 15.050781 23.320312 15.039062 C 23.347656 12.332031 23.320312 9.621094 23.242188 6.914062 C 23.195312 6.898438 23.15625 6.871094 23.125 6.835938 C 23.097656 8.605469 23.074219 10.378906 23.046875 12.148438 C 22.96875 12.214844 22.875 12.238281 22.773438 12.226562 C 22.785156 10.429688 22.773438 8.632812 22.734375 6.835938 C 22.226562 6.714844 21.71875 6.625 21.210938 6.5625 C 20.074219 9.714844 18.96875 12.878906 17.890625 16.054688 C 17.894531 16.328125 17.933594 16.601562 18.007812 16.875 C 18 17.089844 17.933594 17.285156 17.8125 17.460938 C 17 18.679688 16.179688 19.890625 15.351562 21.09375 C 15.175781 21.214844 14.980469 21.28125 14.765625 21.289062 C 14.152344 21.152344 13.542969 21.023438 12.929688 20.898438 C 13.054688 21.703125 13.148438 22.511719 13.203125 23.320312 C 12.03125 23.972656 10.859375 24.621094 9.6875 25.273438 C 9.613281 25.242188 9.5625 25.191406 9.53125 25.117188 C 9.324219 24.582031 9.234375 24.035156 9.257812 23.476562 C 10.144531 22.800781 11.027344 22.121094 11.914062 21.445312 C 12.28125 21.007812 12.320312 20.539062 12.03125 20.039062 C 11.636719 19.640625 11.183594 19.550781 10.664062 19.765625 C 10.125 20.160156 9.589844 20.5625 9.0625 20.976562 C 9.101562 19.867188 9.636719 19.101562 10.664062 18.671875 C 11.027344 18.621094 11.394531 18.621094 11.757812 18.671875 C 12.589844 18.894531 13.425781 19.113281 14.257812 19.335938 C 15.003906 18.394531 15.695312 17.402344 16.328125 16.367188 C 16.601562 16.046875 16.953125 15.890625 17.382812 15.898438 C 18.460938 12.765625 19.554688 9.640625 20.664062 6.523438 C 20.164062 6.320312 19.640625 6.253906 19.101562 6.328125 C 17.589844 6.535156 16.082031 6.746094 14.570312 6.953125 C 14.070312 7.09375 13.574219 7.25 13.085938 7.421875 C 12.558594 7.421875 12.035156 7.34375 11.523438 7.1875 C 11.402344 7.132812 11.324219 7.042969 11.289062 6.914062 C 11.71875 6.824219 12.148438 6.824219 12.578125 6.914062 C 12.890625 6.871094 13.191406 6.777344 13.476562 6.640625 C 12.53125 6.136719 11.609375 5.601562 10.703125 5.039062 C 10.675781 6.445312 10.652344 7.851562 10.625 9.257812 C 10.578125 9.414062 10.5 9.4375 10.390625 9.335938 C 10.378906 7.832031 10.339844 6.335938 10.273438 4.84375 C 10.246094 4.832031 10.222656 4.816406 10.195312 4.804688 C 10.15625 5.703125 10.089844 6.585938 10 7.460938 C 9.910156 6.507812 9.84375 5.546875 9.804688 4.570312 C 9.636719 4.5 9.480469 4.40625 9.335938 4.296875 C 7.878906 4.386719 6.417969 4.503906 4.960938 4.648438 C 4.910156 4.339844 4.882812 4.027344 4.882812 3.710938 C 6.226562 3.605469 7.566406 3.472656 8.90625 3.320312 C 10.804688 3.753906 12.691406 4.234375 14.570312 4.765625 C 16.003906 4.816406 17.433594 4.816406 18.867188 4.765625 C 18.214844 4.324219 17.566406 3.878906 16.914062 3.4375 C 15.527344 3.164062 14.148438 2.863281 12.773438 2.539062 C 13 2.355469 13.246094 2.199219 13.515625 2.070312 C 14.832031 2.226562 16.148438 2.398438 17.460938 2.578125 C 18.324219 3.257812 19.210938 3.910156 20.117188 4.53125 C 20.539062 4.539062 20.957031 4.488281 21.367188 4.375 C 21.472656 4.324219 21.472656 4.269531 21.367188 4.21875 C 20.941406 3.972656 20.539062 3.699219 20.15625 3.398438 C 19.9375 2.820312 19.691406 2.261719 19.414062 1.71875 C 18.789062 1.457031 18.1875 1.160156 17.617188 0.820312 C 17.660156 0.675781 17.726562 0.546875 17.8125 0.429688 C 18.476562 0.703125 19.140625 0.976562 19.804688 1.25 C 20.035156 1.726562 20.257812 2.207031 20.46875 2.695312 C 20.652344 2.800781 20.832031 2.902344 21.015625 3.007812 C 21.003906 1.742188 20.417969 0.871094 19.257812 0.390625 C 19.328125 0.257812 19.355469 0.113281 19.335938 -0.0390625 Z M 34.179688 9.570312 C 34.363281 9.597656 34.464844 9.699219 34.492188 9.882812 C 34.363281 9.804688 34.257812 9.699219 34.179688 9.570312 Z M 34.179688 9.570312 "/>
</g>
<mask id="mask1">
  <g filter="url(#alpha)">
<rect x="0" y="0" width="40" height="40" style="fill:rgb(0%,0%,0%);fill-opacity:0.772549;stroke:none;"/>
  </g>
</mask>
<clipPath id="clip2">
  <rect x="0" y="0" width="40" height="40"/>
</clipPath>
<g id="surface8" clip-path="url(#clip2)">
<path style=" stroke:none;fill-rule:evenodd;fill:rgb(41.176471%,70.588235%,17.647059%);fill-opacity:1;" d="M 13.867188 0.351562 C 14.382812 0.367188 14.839844 0.578125 15.234375 0.976562 C 15.421875 1.246094 15.460938 1.53125 15.351562 1.835938 C 14.984375 1.539062 14.960938 1.578125 15.273438 1.953125 C 14.914062 2.054688 14.613281 1.964844 14.375 1.679688 C 14.121094 1.257812 13.953125 0.816406 13.867188 0.351562 Z M 13.867188 0.351562 "/>
</g>
<mask id="mask2">
  <g filter="url(#alpha)">
<rect x="0" y="0" width="40" height="40" style="fill:rgb(0%,0%,0%);fill-opacity:0.776471;stroke:none;"/>
  </g>
</mask>
<clipPath id="clip3">
  <rect x="0" y="0" width="40" height="40"/>
</clipPath>
<g id="surface11" clip-path="url(#clip3)">
<path style=" stroke:none;fill-rule:evenodd;fill:rgb(41.176471%,70.588235%,17.647059%);fill-opacity:1;" d="M 13.164062 1.679688 C 13.214844 1.757812 13.265625 1.835938 13.320312 1.914062 C 13.035156 2.097656 12.75 2.085938 12.460938 1.875 C 12.035156 1.566406 11.75 1.164062 11.601562 0.664062 C 12.332031 0.617188 12.941406 0.851562 13.4375 1.367188 C 13.523438 1.675781 13.433594 1.78125 13.164062 1.679688 Z M 12.929688 1.523438 C 13.050781 1.519531 13.128906 1.570312 13.164062 1.679688 C 13.042969 1.683594 12.964844 1.632812 12.929688 1.523438 Z M 12.929688 1.523438 "/>
</g>
<mask id="mask3">
  <g filter="url(#alpha)">
<rect x="0" y="0" width="40" height="40" style="fill:rgb(0%,0%,0%);fill-opacity:0.784314;stroke:none;"/>
  </g>
</mask>
<clipPath id="clip4">
  <rect x="0" y="0" width="40" height="40"/>
</clipPath>
<g id="surface14" clip-path="url(#clip4)">
<path style=" stroke:none;fill-rule:evenodd;fill:rgb(41.176471%,70.588235%,17.647059%);fill-opacity:1;" d="M 6.132812 1.210938 C 6.8125 1.335938 7.320312 1.699219 7.65625 2.304688 C 7.738281 2.683594 7.582031 2.890625 7.1875 2.929688 C 6.75 2.808594 6.464844 2.519531 6.328125 2.070312 C 6.238281 1.789062 6.171875 1.503906 6.132812 1.210938 Z M 7.148438 2.382812 C 7.285156 2.441406 7.363281 2.546875 7.382812 2.695312 C 7.246094 2.636719 7.167969 2.53125 7.148438 2.382812 Z M 7.148438 2.382812 "/>
</g>
<mask id="mask4">
  <g filter="url(#alpha)">
<rect x="0" y="0" width="40" height="40" style="fill:rgb(0%,0%,0%);fill-opacity:0.8;stroke:none;"/>
  </g>
</mask>
<clipPath id="clip5">
  <rect x="0" y="0" width="40" height="40"/>
</clipPath>
<g id="surface17" clip-path="url(#clip5)">
<path style=" stroke:none;fill-rule:evenodd;fill:rgb(41.176471%,70.588235%,17.647059%);fill-opacity:1;" d="M 10.820312 1.835938 C 11.203125 1.800781 11.570312 1.867188 11.914062 2.03125 C 12.105469 2.203125 12.09375 2.320312 11.875 2.382812 C 11.605469 2.308594 11.332031 2.296875 11.054688 2.34375 C 11.359375 2.433594 11.671875 2.472656 11.992188 2.460938 C 11.941406 2.808594 11.730469 2.9375 11.367188 2.851562 C 10.777344 2.84375 10.28125 2.621094 9.882812 2.1875 C 10.199219 2.058594 10.511719 1.941406 10.820312 1.835938 Z M 10.820312 1.835938 "/>
</g>
<mask id="mask5">
  <g filter="url(#alpha)">
<rect x="0" y="0" width="40" height="40" style="fill:rgb(0%,0%,0%);fill-opacity:0.776471;stroke:none;"/>
  </g>
</mask>
<clipPath id="clip6">
  <rect x="0" y="0" width="40" height="40"/>
</clipPath>
<g id="surface20" clip-path="url(#clip6)">
<path style=" stroke:none;fill-rule:evenodd;fill:rgb(41.176471%,70.588235%,17.647059%);fill-opacity:1;" d="M 5.429688 3.007812 C 5.515625 3.226562 5.421875 3.328125 5.15625 3.320312 C 4.4375 3.105469 3.980469 2.636719 3.789062 1.914062 C 4.515625 1.863281 5.125 2.097656 5.625 2.617188 C 5.664062 2.746094 5.675781 2.875 5.664062 3.007812 C 5.585938 3.007812 5.507812 3.007812 5.429688 3.007812 Z M 4.960938 2.695312 C 5.082031 2.691406 5.160156 2.742188 5.195312 2.851562 C 5.074219 2.855469 4.996094 2.804688 4.960938 2.695312 Z M 5.195312 2.851562 C 5.316406 2.847656 5.394531 2.898438 5.429688 3.007812 C 5.308594 3.011719 5.230469 2.960938 5.195312 2.851562 Z M 5.195312 2.851562 "/>
</g>
<mask id="mask6">
  <g filter="url(#alpha)">
<rect x="0" y="0" width="40" height="40" style="fill:rgb(0%,0%,0%);fill-opacity:0.776471;stroke:none;"/>
  </g>
</mask>
<clipPath id="clip7">
  <rect x="0" y="0" width="40" height="40"/>
</clipPath>
<g id="surface23" clip-path="url(#clip7)">
<path style=" stroke:none;fill-rule:evenodd;fill:rgb(41.176471%,70.588235%,17.647059%);fill-opacity:1;" d="M 12.851562 3.007812 C 13.113281 3.019531 13.375 3.058594 13.632812 3.125 C 13.796875 3.222656 13.875 3.367188 13.867188 3.554688 C 13.621094 3.523438 13.386719 3.523438 13.164062 3.554688 C 13.394531 3.632812 13.628906 3.65625 13.867188 3.632812 C 13.882812 3.78125 13.832031 3.898438 13.710938 3.984375 C 13.347656 4.132812 12.984375 4.132812 12.617188 3.984375 C 12.355469 3.855469 12.097656 3.722656 11.835938 3.59375 C 11.742188 3.523438 11.742188 3.457031 11.835938 3.398438 C 12.175781 3.25 12.515625 3.121094 12.851562 3.007812 Z M 12.851562 3.007812 "/>
</g>
<mask id="mask7">
  <g filter="url(#alpha)">
<rect x="0" y="0" width="40" height="40" style="fill:rgb(0%,0%,0%);fill-opacity:0.792157;stroke:none;"/>
  </g>
</mask>
<clipPath id="clip8">
  <rect x="0" y="0" width="40" height="40"/>
</clipPath>
<g id="surface26" clip-path="url(#clip8)">
<path style=" stroke:none;fill-rule:evenodd;fill:rgb(41.176471%,70.588235%,17.647059%);fill-opacity:1;" d="M 15.664062 3.476562 C 15.996094 3.417969 16.253906 3.523438 16.445312 3.789062 C 16.238281 3.859375 16.03125 3.925781 15.820312 3.984375 C 16.03125 4.019531 16.238281 4.003906 16.445312 3.945312 C 16.445312 4.296875 16.261719 4.492188 15.898438 4.53125 C 15.433594 4.589844 14.980469 4.550781 14.53125 4.414062 C 14.433594 4.386719 14.40625 4.335938 14.453125 4.257812 C 14.789062 3.878906 15.195312 3.617188 15.664062 3.476562 Z M 15.664062 3.476562 "/>
</g>
<mask id="mask8">
  <g filter="url(#alpha)">
<rect x="0" y="0" width="40" height="40" style="fill:rgb(0%,0%,0%);fill-opacity:0.792157;stroke:none;"/>
  </g>
</mask>
<clipPath id="clip9">
  <rect x="0" y="0" width="40" height="40"/>
</clipPath>
<g id="surface29" clip-path="url(#clip9)">
<path style=" stroke:none;fill-rule:evenodd;fill:rgb(41.176471%,70.588235%,17.647059%);fill-opacity:1;" d="M 3.945312 4.335938 C 4.828125 4.417969 4.851562 4.585938 4.023438 4.84375 C 4.242188 4.878906 4.449219 4.839844 4.648438 4.726562 C 4.710938 5.074219 4.554688 5.292969 4.179688 5.390625 C 3.984375 5.402344 3.789062 5.417969 3.59375 5.429688 C 2.5 5.515625 2.382812 5.269531 3.242188 4.6875 C 3.460938 4.523438 3.695312 4.40625 3.945312 4.335938 Z M 3.945312 4.335938 "/>
</g>
<mask id="mask9">
  <g filter="url(#alpha)">
<rect x="0" y="0" width="40" height="40" style="fill:rgb(0%,0%,0%);fill-opacity:0.764706;stroke:none;"/>
  </g>
</mask>
<clipPath id="clip10">
  <rect x="0" y="0" width="40" height="40"/>
</clipPath>
<g id="surface32" clip-path="url(#clip10)">
<path style=" stroke:none;fill-rule:evenodd;fill:rgb(41.176471%,70.588235%,17.647059%);fill-opacity:1;" d="M 8.320312 4.648438 C 8.929688 4.644531 9.125 4.933594 8.90625 5.507812 C 8.425781 5.925781 7.867188 6.132812 7.226562 6.132812 C 7.382812 5.480469 7.746094 4.984375 8.320312 4.648438 Z M 8.789062 4.960938 C 8.753906 5.070312 8.675781 5.121094 8.554688 5.117188 C 8.589844 5.007812 8.667969 4.957031 8.789062 4.960938 Z M 8.789062 4.960938 "/>
</g>
<mask id="mask10">
  <g filter="url(#alpha)">
<rect x="0" y="0" width="40" height="40" style="fill:rgb(0%,0%,0%);fill-opacity:0.788235;stroke:none;"/>
  </g>
</mask>
<clipPath id="clip11">
  <rect x="0" y="0" width="40" height="40"/>
</clipPath>
<g id="surface35" clip-path="url(#clip11)">
<path style=" stroke:none;fill-rule:evenodd;fill:rgb(41.176471%,70.588235%,17.647059%);fill-opacity:1;" d="M 6.132812 4.882812 C 6.296875 4.859375 6.453125 4.886719 6.601562 4.960938 C 6.082031 5.640625 6.121094 5.664062 6.71875 5.039062 C 6.867188 5.308594 6.84375 5.566406 6.640625 5.820312 C 6.238281 6.210938 5.753906 6.445312 5.195312 6.523438 C 5.25 5.820312 5.5625 5.273438 6.132812 4.882812 Z M 6.132812 4.882812 "/>
</g>
<mask id="mask11">
  <g filter="url(#alpha)">
<rect x="0" y="0" width="40" height="40" style="fill:rgb(0%,0%,0%);fill-opacity:0.772549;stroke:none;"/>
  </g>
</mask>
<clipPath id="clip12">
  <rect x="0" y="0" width="40" height="40"/>
</clipPath>
<g id="surface38" clip-path="url(#clip12)">
<path style=" stroke:none;fill-rule:evenodd;fill:rgb(41.176471%,70.588235%,17.647059%);fill-opacity:1;" d="M 33.789062 6.523438 C 34.417969 6.867188 34.808594 7.386719 34.960938 8.085938 C 34.941406 8.21875 34.886719 8.335938 34.804688 8.4375 C 34.738281 8.492188 34.6875 8.476562 34.648438 8.398438 C 34.582031 8.269531 34.519531 8.136719 34.453125 8.007812 C 34.417969 8.175781 34.457031 8.332031 34.570312 8.476562 C 34.332031 8.597656 34.136719 8.546875 33.984375 8.320312 C 33.714844 7.742188 33.648438 7.144531 33.789062 6.523438 Z M 33.789062 6.523438 "/>
</g>
<mask id="mask12">
  <g filter="url(#alpha)">
<rect x="0" y="0" width="40" height="40" style="fill:rgb(0%,0%,0%);fill-opacity:0.776471;stroke:none;"/>
  </g>
</mask>
<clipPath id="clip13">
  <rect x="0" y="0" width="40" height="40"/>
</clipPath>
<g id="surface41" clip-path="url(#clip13)">
<path style=" stroke:none;fill-rule:evenodd;fill:rgb(41.176471%,70.588235%,17.647059%);fill-opacity:1;" d="M 37.070312 6.601562 C 37.082031 7.054688 36.964844 7.496094 36.71875 7.929688 C 36.507812 8.277344 36.210938 8.417969 35.820312 8.359375 C 35.554688 8.097656 35.515625 7.796875 35.703125 7.460938 C 36.082031 7.042969 36.539062 6.757812 37.070312 6.601562 Z M 36.132812 7.773438 C 36.113281 7.921875 36.035156 8.027344 35.898438 8.085938 C 35.917969 7.9375 35.996094 7.832031 36.132812 7.773438 Z M 36.132812 7.773438 "/>
</g>
<mask id="mask13">
  <g filter="url(#alpha)">
<rect x="0" y="0" width="40" height="40" style="fill:rgb(0%,0%,0%);fill-opacity:0.776471;stroke:none;"/>
  </g>
</mask>
<clipPath id="clip14">
  <rect x="0" y="0" width="40" height="40"/>
</clipPath>
<g id="surface44" clip-path="url(#clip14)">
<path style=" stroke:none;fill-rule:evenodd;fill:rgb(41.176471%,70.588235%,17.647059%);fill-opacity:1;" d="M 34.492188 9.882812 C 34.460938 10.023438 34.371094 10.101562 34.21875 10.117188 C 33.511719 9.800781 33.109375 9.253906 33.007812 8.476562 C 33.640625 8.539062 34.175781 8.800781 34.609375 9.257812 C 34.699219 9.433594 34.726562 9.617188 34.6875 9.804688 C 34.636719 9.863281 34.570312 9.890625 34.492188 9.882812 Z M 34.179688 9.570312 C 34.363281 9.597656 34.464844 9.699219 34.492188 9.882812 C 34.363281 9.804688 34.257812 9.699219 34.179688 9.570312 Z M 34.179688 9.570312 "/>
</g>
<mask id="mask14">
  <g filter="url(#alpha)">
<rect x="0" y="0" width="40" height="40" style="fill:rgb(0%,0%,0%);fill-opacity:0.780392;stroke:none;"/>
  </g>
</mask>
<clipPath id="clip15">
  <rect x="0" y="0" width="40" height="40"/>
</clipPath>
<g id="surface47" clip-path="url(#clip15)">
<path style=" stroke:none;fill-rule:evenodd;fill:rgb(41.176471%,70.588235%,17.647059%);fill-opacity:1;" d="M 35.507812 9.960938 C 35.359375 9.632812 35.4375 9.359375 35.742188 9.140625 C 37.457031 8.367188 37.664062 8.652344 36.367188 10 C 36.210938 10.097656 36.039062 10.164062 35.859375 10.195312 C 35.6875 10.195312 35.570312 10.117188 35.507812 9.960938 Z M 35.976562 9.648438 C 35.941406 9.757812 35.863281 9.808594 35.742188 9.804688 C 35.777344 9.695312 35.855469 9.644531 35.976562 9.648438 Z M 35.742188 9.804688 C 35.707031 9.914062 35.628906 9.964844 35.507812 9.960938 C 35.542969 9.851562 35.621094 9.800781 35.742188 9.804688 Z M 35.742188 9.804688 "/>
</g>
<mask id="mask15">
  <g filter="url(#alpha)">
<rect x="0" y="0" width="40" height="40" style="fill:rgb(0%,0%,0%);fill-opacity:0.945098;stroke:none;"/>
  </g>
</mask>
<clipPath id="clip16">
  <rect x="0" y="0" width="40" height="40"/>
</clipPath>
<g id="surface50" clip-path="url(#clip16)">
<path style=" stroke:none;fill-rule:evenodd;fill:rgb(41.176471%,70.588235%,17.647059%);fill-opacity:1;" d="M 10.976562 12.304688 C 11.90625 12.183594 12.738281 12.40625 13.476562 12.96875 C 13.816406 13.320312 14.179688 13.632812 14.570312 13.90625 C 14.054688 14.125 13.53125 14.359375 13.007812 14.609375 C 12.238281 15.300781 11.40625 15.898438 10.507812 16.40625 C 9.941406 16.726562 9.433594 16.660156 8.984375 16.210938 C 8.429688 14.273438 9.09375 12.96875 10.976562 12.304688 Z M 12.539062 13.320312 C 12.832031 13.296875 13.039062 13.414062 13.164062 13.671875 C 12.859375 13.9375 12.625 13.875 12.460938 13.476562 C 12.488281 13.421875 12.515625 13.371094 12.539062 13.320312 Z M 12.539062 13.320312 "/>
</g>
<mask id="mask16">
  <g filter="url(#alpha)">
<rect x="0" y="0" width="40" height="40" style="fill:rgb(0%,0%,0%);fill-opacity:0.933333;stroke:none;"/>
  </g>
</mask>
<clipPath id="clip17">
  <rect x="0" y="0" width="40" height="40"/>
</clipPath>
<g id="surface53" clip-path="url(#clip17)">
<path style=" stroke:none;fill-rule:evenodd;fill:rgb(41.176471%,70.588235%,17.647059%);fill-opacity:1;" d="M 14.101562 14.335938 C 14.28125 14.5625 14.398438 14.824219 14.453125 15.117188 C 14.707031 16.425781 14.253906 17.390625 13.085938 18.007812 C 12.273438 17.425781 11.933594 16.644531 12.070312 15.664062 C 12.355469 15.417969 12.644531 15.167969 12.929688 14.921875 C 13.320312 14.71875 13.710938 14.523438 14.101562 14.335938 Z M 14.101562 14.335938 "/>
</g>
<mask id="mask17">
  <g filter="url(#alpha)">
<rect x="0" y="0" width="40" height="40" style="fill:rgb(0%,0%,0%);fill-opacity:0.886275;stroke:none;"/>
  </g>
</mask>
<clipPath id="clip18">
  <rect x="0" y="0" width="40" height="40"/>
</clipPath>
<g id="surface56" clip-path="url(#clip18)">
<path style=" stroke:none;fill-rule:evenodd;fill:rgb(41.176471%,70.588235%,17.647059%);fill-opacity:1;" d="M 11.601562 15.976562 C 11.800781 16.769531 12.191406 17.472656 12.773438 18.085938 C 11.488281 18.429688 10.5 18.039062 9.804688 16.914062 C 10.464844 16.703125 11.0625 16.390625 11.601562 15.976562 Z M 11.601562 15.976562 "/>
</g>
<mask id="mask18">
  <g filter="url(#alpha)">
<rect x="0" y="0" width="40" height="40" style="fill:rgb(0%,0%,0%);fill-opacity:0.941176;stroke:none;"/>
  </g>
</mask>
<clipPath id="clip19">
  <rect x="0" y="0" width="40" height="40"/>
</clipPath>
<g id="surface59" clip-path="url(#clip19)">
<path style=" stroke:none;fill-rule:evenodd;fill:rgb(41.176471%,70.588235%,17.647059%);fill-opacity:1;" d="M 10.898438 19.804688 C 11.78125 19.765625 12.160156 20.179688 12.03125 21.054688 C 11.945312 21.21875 11.828125 21.363281 11.679688 21.484375 C 10.707031 22.171875 9.757812 22.886719 8.828125 23.632812 C 9.019531 25.058594 9.175781 26.492188 9.296875 27.929688 C 9.039062 28.429688 8.632812 28.601562 8.085938 28.4375 C 7.863281 28.320312 7.695312 28.152344 7.578125 27.929688 C 7.316406 26.292969 7.109375 24.652344 6.953125 23.007812 C 7.035156 22.769531 7.175781 22.574219 7.382812 22.421875 C 8.558594 21.546875 9.730469 20.675781 10.898438 19.804688 Z M 10.898438 19.804688 "/>
</g>
<mask id="mask19">
  <g filter="url(#alpha)">
<rect x="0" y="0" width="40" height="40" style="fill:rgb(0%,0%,0%);fill-opacity:0.780392;stroke:none;"/>
  </g>
</mask>
<clipPath id="clip20">
  <rect x="0" y="0" width="40" height="40"/>
</clipPath>
<g id="surface62" clip-path="url(#clip20)">
<path style=" stroke:none;fill-rule:evenodd;fill:rgb(41.176471%,70.588235%,17.647059%);fill-opacity:1;" d="M 31.914062 23.945312 C 31.820312 23.910156 31.769531 23.832031 31.757812 23.710938 C 31.867188 23.25 32.152344 22.949219 32.617188 22.8125 C 32.902344 22.734375 33.1875 22.667969 33.476562 22.617188 C 33.355469 23.382812 32.9375 23.90625 32.226562 24.179688 C 32.03125 24.210938 31.929688 24.132812 31.914062 23.945312 Z M 32.304688 23.632812 C 32.21875 23.796875 32.089844 23.898438 31.914062 23.945312 C 32 23.78125 32.128906 23.679688 32.304688 23.632812 Z M 32.304688 23.632812 "/>
</g>
<mask id="mask20">
  <g filter="url(#alpha)">
<rect x="0" y="0" width="40" height="40" style="fill:rgb(0%,0%,0%);fill-opacity:0.807843;stroke:none;"/>
  </g>
</mask>
<clipPath id="clip21">
  <rect x="0" y="0" width="40" height="40"/>
</clipPath>
<g id="surface65" clip-path="url(#clip21)">
<path style=" stroke:none;fill-rule:evenodd;fill:rgb(41.176471%,70.588235%,17.647059%);fill-opacity:1;" d="M 32.382812 24.804688 C 32.863281 24.773438 33.332031 24.824219 33.789062 24.960938 C 33.367188 25.628906 32.769531 25.929688 31.992188 25.859375 C 31.886719 25.808594 31.808594 25.730469 31.757812 25.625 C 32.003906 25.578125 32.238281 25.5 32.460938 25.390625 C 32.242188 25.355469 32.035156 25.394531 31.835938 25.507812 C 31.722656 25.292969 31.777344 25.125 31.992188 25 C 32.132812 24.941406 32.265625 24.875 32.382812 24.804688 Z M 32.382812 24.804688 "/>
</g>
<mask id="mask21">
  <g filter="url(#alpha)">
<rect x="0" y="0" width="40" height="40" style="fill:rgb(0%,0%,0%);fill-opacity:0.780392;stroke:none;"/>
  </g>
</mask>
<clipPath id="clip22">
  <rect x="0" y="0" width="40" height="40"/>
</clipPath>
<g id="surface68" clip-path="url(#clip22)">
<path style=" stroke:none;fill-rule:evenodd;fill:rgb(41.176471%,70.588235%,17.647059%);fill-opacity:1;" d="M 31.757812 27.539062 C 31.699219 27.164062 31.882812 26.941406 32.304688 26.875 C 32.820312 26.796875 33.3125 26.863281 33.789062 27.070312 C 33.34375 27.683594 32.746094 27.957031 31.992188 27.890625 C 31.808594 27.84375 31.730469 27.726562 31.757812 27.539062 Z M 32.460938 27.382812 C 32.25 27.492188 32.015625 27.546875 31.757812 27.539062 C 31.96875 27.429688 32.203125 27.375 32.460938 27.382812 Z M 32.460938 27.382812 "/>
</g>
<mask id="mask22">
  <g filter="url(#alpha)">
<rect x="0" y="0" width="40" height="40" style="fill:rgb(0%,0%,0%);fill-opacity:0.784314;stroke:none;"/>
  </g>
</mask>
<clipPath id="clip23">
  <rect x="0" y="0" width="40" height="40"/>
</clipPath>
<g id="surface71" clip-path="url(#clip23)">
<path style=" stroke:none;fill-rule:evenodd;fill:rgb(41.176471%,70.588235%,17.647059%);fill-opacity:1;" d="M 30.585938 28.632812 C 30.648438 28.457031 30.777344 28.378906 30.976562 28.398438 C 31.644531 28.621094 32.113281 29.066406 32.382812 29.726562 C 31.800781 29.808594 31.253906 29.691406 30.742188 29.375 C 30.515625 29.152344 30.464844 28.90625 30.585938 28.632812 Z M 30.585938 28.632812 C 30.796875 28.660156 30.953125 28.765625 31.054688 28.945312 C 30.871094 28.878906 30.714844 28.777344 30.585938 28.632812 Z M 30.585938 28.632812 "/>
</g>
<mask id="mask23">
  <g filter="url(#alpha)">
<rect x="0" y="0" width="40" height="40" style="fill:rgb(0%,0%,0%);fill-opacity:0.878431;stroke:none;"/>
  </g>
</mask>
<clipPath id="clip24">
  <rect x="0" y="0" width="40" height="40"/>
</clipPath>
<g id="surface74" clip-path="url(#clip24)">
<path style=" stroke:none;fill-rule:evenodd;fill:rgb(41.176471%,70.588235%,17.647059%);fill-opacity:1;" d="M 8.867188 28.554688 C 9.015625 29.148438 9.210938 29.746094 9.453125 30.351562 C 10.007812 31.011719 10.605469 31.0625 11.25 30.507812 C 11.550781 29.921875 11.722656 29.296875 11.757812 28.632812 C 11.964844 28.695312 12.121094 28.8125 12.226562 28.984375 C 12.195312 29.777344 11.9375 30.480469 11.445312 31.09375 C 10.035156 31.710938 9.113281 31.28125 8.671875 29.804688 C 8.632812 33.136719 8.621094 36.472656 8.632812 39.804688 C 8.476562 39.804688 8.320312 39.804688 8.164062 39.804688 C 8.136719 36.082031 8.164062 32.355469 8.242188 28.632812 C 8.464844 28.707031 8.675781 28.679688 8.867188 28.554688 Z M 8.867188 28.554688 "/>
</g>
<mask id="mask24">
  <g filter="url(#alpha)">
<rect x="0" y="0" width="40" height="40" style="fill:rgb(0%,0%,0%);fill-opacity:0.780392;stroke:none;"/>
  </g>
</mask>
<clipPath id="clip25">
  <rect x="0" y="0" width="40" height="40"/>
</clipPath>
<g id="surface77" clip-path="url(#clip25)">
<path style=" stroke:none;fill-rule:evenodd;fill:rgb(41.176471%,70.588235%,17.647059%);fill-opacity:1;" d="M 28.632812 29.414062 C 28.636719 29.242188 28.726562 29.164062 28.90625 29.179688 C 29.417969 29.300781 29.757812 29.613281 29.921875 30.117188 C 30.035156 30.339844 30.097656 30.574219 30.117188 30.820312 C 29.457031 30.761719 28.921875 30.476562 28.515625 29.960938 C 28.503906 29.871094 28.488281 29.777344 28.476562 29.6875 C 28.484375 29.554688 28.539062 29.464844 28.632812 29.414062 Z M 28.632812 29.414062 C 28.835938 29.484375 28.992188 29.617188 29.101562 29.804688 C 28.898438 29.734375 28.742188 29.601562 28.632812 29.414062 Z M 28.632812 29.414062 "/>
</g>
</defs>
<g id="surface1">
<use xlink:href="#surface5" mask="url(#mask0)"/>
<use xlink:href="#surface8" mask="url(#mask1)"/>
<use xlink:href="#surface11" mask="url(#mask2)"/>
<use xlink:href="#surface14" mask="url(#mask3)"/>
<use xlink:href="#surface17" mask="url(#mask4)"/>
<use xlink:href="#surface20" mask="url(#mask5)"/>
<use xlink:href="#surface23" mask="url(#mask6)"/>
<use xlink:href="#surface26" mask="url(#mask7)"/>
<use xlink:href="#surface29" mask="url(#mask8)"/>
<use xlink:href="#surface32" mask="url(#mask9)"/>
<use xlink:href="#surface35" mask="url(#mask10)"/>
<use xlink:href="#surface38" mask="url(#mask11)"/>
<use xlink:href="#surface41" mask="url(#mask12)"/>
<use xlink:href="#surface44" mask="url(#mask13)"/>
<use xlink:href="#surface47" mask="url(#mask14)"/>
<use xlink:href="#surface50" mask="url(#mask15)"/>
<use xlink:href="#surface53" mask="url(#mask16)"/>
<use xlink:href="#surface56" mask="url(#mask17)"/>
<use xlink:href="#surface59" mask="url(#mask18)"/>
<use xlink:href="#surface62" mask="url(#mask19)"/>
<use xlink:href="#surface65" mask="url(#mask20)"/>
<use xlink:href="#surface68" mask="url(#mask21)"/>
<use xlink:href="#surface71" mask="url(#mask22)"/>
<use xlink:href="#surface74" mask="url(#mask23)"/>
<use xlink:href="#surface77" mask="url(#mask24)"/>
</g>
</svg>
