<?xml version="1.0" encoding="UTF-8"?>
<svg xmlns="http://www.w3.org/2000/svg" xmlns:xlink="http://www.w3.org/1999/xlink" width="40px" height="px" viewBox="0 0 40 40" version="1.1">
<defs>
<filter id="alpha" filterUnits="objectBoundingBox" x="0%" y="0%" width="100%" height="100%">
  <feColorMatrix type="matrix" in="SourceGraphic" values="0 0 0 0 1 0 0 0 0 1 0 0 0 0 1 0 0 0 1 0"/>
</filter>
<mask id="mask0">
  <g filter="url(#alpha)">
<rect x="0" y="0" width="40" height="40" style="fill:rgb(0%,0%,0%);fill-opacity:0.941176;stroke:none;"/>
  </g>
</mask>
<clipPath id="clip1">
  <rect x="0" y="0" width="40" height="40"/>
</clipPath>
<g id="surface5" clip-path="url(#clip1)">
<path style=" stroke:none;fill-rule:evenodd;fill:rgb(41.176471%,70.588235%,17.647059%);fill-opacity:1;" d="M 8.554688 -0.0390625 C 9.023438 -0.0390625 9.492188 -0.0390625 9.960938 -0.0390625 C 10.867188 0.265625 11.660156 0.757812 12.34375 1.445312 C 13.324219 2.546875 14.132812 3.773438 14.765625 5.117188 C 15.386719 6.480469 15.957031 7.859375 16.484375 9.257812 C 16.609375 9.1875 16.726562 9.109375 16.835938 9.023438 C 16.703125 7.476562 17.277344 6.265625 18.554688 5.390625 C 18.894531 5.179688 19.261719 5.039062 19.648438 4.960938 C 19.839844 2.296875 21.21875 0.628906 23.789062 -0.0390625 C 24.386719 -0.0390625 24.988281 -0.0390625 25.585938 -0.0390625 C 28.109375 0.664062 29.464844 2.328125 29.648438 4.960938 C 30.976562 5.285156 31.875 6.09375 32.34375 7.382812 C 32.476562 7.949219 32.566406 8.523438 32.617188 9.101562 C 34.027344 9.71875 35.03125 10.734375 35.625 12.148438 C 35.683594 12.894531 35.359375 13.140625 34.648438 12.890625 C 34.09375 11.582031 33.15625 10.671875 31.835938 10.15625 C 31.605469 9.980469 31.4375 9.757812 31.328125 9.492188 C 31.484375 7.621094 30.664062 6.433594 28.867188 5.9375 C 28.777344 5.847656 28.683594 5.753906 28.59375 5.664062 C 28.453125 4.960938 28.296875 4.257812 28.125 3.554688 C 27.066406 1.464844 25.414062 0.777344 23.164062 1.484375 C 21.621094 2.300781 20.851562 3.589844 20.859375 5.351562 C 20.777344 5.589844 20.632812 5.785156 20.429688 5.9375 C 19.613281 6.144531 18.949219 6.574219 18.4375 7.226562 C 18.3125 7.453125 18.207031 7.6875 18.125 7.929688 C 18.046875 8.476562 17.996094 9.023438 17.96875 9.570312 C 17.878906 9.714844 17.785156 9.855469 17.695312 10 C 17.394531 10.164062 17.105469 10.347656 16.835938 10.546875 C 17.90625 13.757812 18.492188 17.050781 18.59375 20.429688 C 19.46875 21.746094 20.679688 22.203125 22.226562 21.796875 C 22.957031 21.59375 23.542969 21.191406 23.984375 20.585938 C 24.035156 19.363281 24.035156 18.136719 23.984375 16.914062 C 23.125 16.054688 22.265625 15.195312 21.40625 14.335938 C 21.15625 13.625 21.402344 13.300781 22.148438 13.359375 C 22.785156 13.917969 23.394531 14.503906 23.984375 15.117188 C 24.011719 14.179688 24.035156 13.242188 24.0625 12.304688 C 24.253906 11.9375 24.550781 11.820312 24.960938 11.953125 C 25.050781 12.042969 25.144531 12.136719 25.234375 12.226562 C 25.261719 13.582031 25.285156 14.933594 25.3125 16.289062 C 25.898438 15.703125 26.484375 15.117188 27.070312 14.53125 C 27.855469 14.433594 28.128906 14.757812 27.890625 15.507812 C 27.03125 16.367188 26.171875 17.226562 25.3125 18.085938 C 24.707031 19.9375 25.292969 21.175781 27.070312 21.796875 C 28.578125 22.1875 29.789062 21.757812 30.703125 20.507812 C 31.011719 19.871094 31.269531 19.21875 31.484375 18.554688 C 32.816406 18.054688 33.808594 17.167969 34.453125 15.898438 C 34.582031 15.539062 34.6875 15.175781 34.765625 14.804688 C 34.992188 14.398438 35.320312 14.308594 35.742188 14.53125 C 35.894531 14.664062 35.972656 14.835938 35.976562 15.039062 C 35.914062 15.496094 35.796875 15.9375 35.625 16.367188 C 35.398438 16.816406 35.179688 17.261719 34.960938 17.695312 C 37.019531 18.125 38.488281 19.296875 39.375 21.210938 C 39.628906 21.828125 39.824219 22.453125 39.960938 23.085938 C 39.960938 23.816406 39.960938 24.542969 39.960938 25.273438 C 39.527344 27.894531 38.070312 29.679688 35.585938 30.625 C 35.277344 30.707031 34.964844 30.769531 34.648438 30.820312 C 34.648438 33.476562 34.648438 36.132812 34.648438 38.789062 C 36.339844 38.777344 38.035156 38.789062 39.726562 38.828125 C 39.792969 38.910156 39.871094 38.976562 39.960938 39.023438 C 39.960938 39.257812 39.960938 39.492188 39.960938 39.726562 C 39.855469 39.777344 39.777344 39.855469 39.726562 39.960938 C 26.550781 39.960938 13.371094 39.960938 0.195312 39.960938 C 0.144531 39.855469 0.0664062 39.777344 -0.0390625 39.726562 C -0.0390625 39.492188 -0.0390625 39.257812 -0.0390625 39.023438 C 0.0507812 38.976562 0.128906 38.910156 0.195312 38.828125 C 3.007812 38.789062 5.820312 38.777344 8.632812 38.789062 C 8.632812 35.949219 8.632812 33.113281 8.632812 30.273438 C 5.132812 29.835938 2.59375 28.039062 1.015625 24.882812 C 0.492188 23.726562 0.140625 22.527344 -0.0390625 21.289062 C -0.0390625 20.324219 -0.0390625 19.363281 -0.0390625 18.398438 C 0.308594 15.484375 0.960938 12.632812 1.914062 9.84375 C 2.691406 9.488281 3.042969 9.734375 2.96875 10.585938 C 2.136719 13.1875 1.5625 15.84375 1.25 18.554688 C 0.851562 22 1.90625 24.902344 4.414062 27.265625 C 5.636719 28.285156 7.042969 28.871094 8.632812 29.023438 C 8.644531 27.539062 8.632812 26.054688 8.59375 24.570312 C 7.761719 23.738281 6.925781 22.902344 6.09375 22.070312 C 5.890625 21.527344 6.074219 21.191406 6.640625 21.054688 C 6.757812 21.09375 6.875 21.132812 6.992188 21.171875 C 7.527344 21.707031 8.058594 22.238281 8.59375 22.773438 C 8.621094 21.082031 8.644531 19.386719 8.671875 17.695312 C 8.902344 17.398438 9.203125 17.308594 9.570312 17.421875 C 9.691406 17.515625 9.78125 17.632812 9.84375 17.773438 C 9.871094 18.605469 9.894531 19.441406 9.921875 20.273438 C 10.457031 19.710938 11.019531 19.175781 11.601562 18.671875 C 12.328125 18.546875 12.601562 18.84375 12.421875 19.570312 C 11.589844 20.402344 10.753906 21.238281 9.921875 22.070312 C 9.882812 24.386719 9.871094 26.707031 9.882812 29.023438 C 12.933594 28.59375 15.105469 26.976562 16.40625 24.179688 C 17.179688 22.433594 17.464844 20.613281 17.265625 18.710938 C 16.792969 14.453125 15.699219 10.367188 13.984375 6.445312 C 13.261719 4.660156 12.207031 3.109375 10.820312 1.796875 C 9.777344 1.019531 8.734375 1.019531 7.695312 1.796875 C 6.890625 2.472656 6.226562 3.265625 5.703125 4.179688 C 4.996094 5.4375 4.371094 6.742188 3.828125 8.085938 C 3.539062 8.351562 3.210938 8.390625 2.851562 8.203125 C 2.703125 7.976562 2.664062 7.726562 2.734375 7.460938 C 3.570312 5.070312 4.832031 2.949219 6.523438 1.09375 C 7.125 0.570312 7.800781 0.195312 8.554688 -0.0390625 Z M 33.945312 18.789062 C 36.613281 19.097656 38.1875 20.582031 38.671875 23.242188 C 38.960938 25.410156 38.296875 27.21875 36.679688 28.671875 C 36.078125 29.109375 35.414062 29.410156 34.6875 29.570312 C 34.636719 28.996094 34.636719 28.425781 34.6875 27.851562 C 35.339844 27.199219 35.988281 26.550781 36.640625 25.898438 C 36.71875 25.046875 36.367188 24.796875 35.585938 25.15625 C 35.285156 25.457031 34.988281 25.753906 34.6875 26.054688 C 34.683594 25.34375 34.632812 24.640625 34.53125 23.945312 C 34.21875 23.738281 33.90625 23.738281 33.59375 23.945312 C 33.492188 25.8125 33.4375 27.6875 33.4375 29.570312 C 31.214844 28.9375 29.886719 27.476562 29.453125 25.195312 C 29.382812 24.460938 29.40625 23.730469 29.53125 23.007812 C 30.535156 22.550781 31.316406 21.847656 31.875 20.898438 C 32.140625 20.417969 32.363281 19.925781 32.539062 19.414062 C 33.003906 19.15625 33.472656 18.949219 33.945312 18.789062 Z M 18.320312 22.226562 C 19.828125 23.25 21.441406 23.445312 23.164062 22.8125 C 23.46875 22.691406 23.742188 22.523438 23.984375 22.304688 C 24.023438 27.800781 24.035156 33.292969 24.023438 38.789062 C 19.308594 38.789062 14.597656 38.789062 9.882812 38.789062 C 9.882812 35.949219 9.882812 33.113281 9.882812 30.273438 C 13.71875 29.757812 16.363281 27.703125 17.8125 24.101562 C 18.054688 23.496094 18.222656 22.871094 18.320312 22.226562 Z M 25.273438 22.304688 C 26.109375 22.90625 27.046875 23.191406 28.085938 23.164062 C 27.894531 25.480469 28.570312 27.484375 30.117188 29.179688 C 31.039062 30.121094 32.15625 30.667969 33.476562 30.820312 C 33.476562 33.476562 33.476562 36.132812 33.476562 38.789062 C 30.742188 38.789062 28.007812 38.789062 25.273438 38.789062 C 25.273438 33.292969 25.273438 27.800781 25.273438 22.304688 Z M 25.273438 22.304688 "/>
</g>
</defs>
<g id="surface1">
<use xlink:href="#surface5" mask="url(#mask0)"/>
</g>
</svg>
