<?xml version="1.0" encoding="UTF-8"?>
<svg xmlns="http://www.w3.org/2000/svg" xmlns:xlink="http://www.w3.org/1999/xlink" width="40px" height="px" viewBox="0 0 40 40" version="1.1">
<defs>
<filter id="alpha" filterUnits="objectBoundingBox" x="0%" y="0%" width="100%" height="100%">
  <feColorMatrix type="matrix" in="SourceGraphic" values="0 0 0 0 1 0 0 0 0 1 0 0 0 0 1 0 0 0 1 0"/>
</filter>
<mask id="mask0">
  <g filter="url(#alpha)">
<rect x="0" y="0" width="40" height="40" style="fill:rgb(0%,0%,0%);fill-opacity:0.960784;stroke:none;"/>
  </g>
</mask>
<clipPath id="clip1">
  <rect x="0" y="0" width="40" height="40"/>
</clipPath>
<g id="surface5" clip-path="url(#clip1)">
<path style=" stroke:none;fill-rule:evenodd;fill:rgb(41.176471%,70.588235%,17.647059%);fill-opacity:1;" d="M 29.726562 -0.0390625 C 30.246094 -0.0390625 30.769531 -0.0390625 31.289062 -0.0390625 C 33.585938 0.671875 34.613281 2.234375 34.375 4.648438 C 33.972656 6.300781 32.941406 7.332031 31.289062 7.734375 C 27.617188 7.785156 23.945312 7.785156 20.273438 7.734375 C 19.800781 7.441406 19.683594 7.039062 19.921875 6.523438 C 20.015625 6.402344 20.132812 6.3125 20.273438 6.25 C 23.683594 6.222656 27.097656 6.199219 30.507812 6.171875 C 32.15625 5.933594 32.898438 4.984375 32.734375 3.320312 C 32.269531 2.011719 31.34375 1.453125 29.960938 1.640625 C 29.121094 1.878906 28.5625 2.414062 28.28125 3.242188 C 28.222656 3.578125 28.167969 3.917969 28.125 4.257812 C 27.835938 4.628906 27.457031 4.746094 26.992188 4.609375 C 26.707031 4.429688 26.550781 4.167969 26.523438 3.828125 C 26.699219 1.789062 27.769531 0.5 29.726562 -0.0390625 Z M 29.726562 -0.0390625 "/>
</g>
<mask id="mask1">
  <g filter="url(#alpha)">
<rect x="0" y="0" width="40" height="40" style="fill:rgb(0%,0%,0%);fill-opacity:0.992157;stroke:none;"/>
  </g>
</mask>
<clipPath id="clip2">
  <rect x="0" y="0" width="40" height="40"/>
</clipPath>
<g id="surface8" clip-path="url(#clip2)">
<path style=" stroke:none;fill-rule:evenodd;fill:rgb(41.176471%,70.588235%,17.647059%);fill-opacity:1;" d="M 4.335938 2.460938 C 9.308594 2.449219 14.285156 2.460938 19.257812 2.5 C 19.753906 2.839844 19.847656 3.269531 19.53125 3.789062 C 19.460938 3.882812 19.371094 3.949219 19.257812 3.984375 C 14.285156 4.035156 9.308594 4.035156 4.335938 3.984375 C 3.722656 3.476562 3.722656 2.96875 4.335938 2.460938 Z M 4.335938 2.460938 "/>
</g>
<mask id="mask2">
  <g filter="url(#alpha)">
<rect x="0" y="0" width="40" height="40" style="fill:rgb(0%,0%,0%);fill-opacity:0.984314;stroke:none;"/>
  </g>
</mask>
<clipPath id="clip3">
  <rect x="0" y="0" width="40" height="40"/>
</clipPath>
<g id="surface11" clip-path="url(#clip3)">
<path style=" stroke:none;fill-rule:evenodd;fill:rgb(41.176471%,70.588235%,17.647059%);fill-opacity:1;" d="M 9.414062 6.210938 C 11.707031 6.199219 13.996094 6.210938 16.289062 6.25 C 16.71875 6.476562 16.863281 6.828125 16.71875 7.304688 C 16.628906 7.5 16.484375 7.644531 16.289062 7.734375 C 13.996094 7.785156 11.707031 7.785156 9.414062 7.734375 C 8.894531 7.226562 8.894531 6.71875 9.414062 6.210938 Z M 9.414062 6.210938 "/>
</g>
<mask id="mask3">
  <g filter="url(#alpha)">
<rect x="0" y="0" width="40" height="40" style="fill:rgb(0%,0%,0%);fill-opacity:0.984314;stroke:none;"/>
  </g>
</mask>
<clipPath id="clip4">
  <rect x="0" y="0" width="40" height="40"/>
</clipPath>
<g id="surface14" clip-path="url(#clip4)">
<path style=" stroke:none;fill-rule:evenodd;fill:rgb(41.176471%,70.588235%,17.647059%);fill-opacity:1;" d="M -0.0390625 11.132812 C -0.0390625 10.871094 -0.0390625 10.613281 -0.0390625 10.351562 C 0.0742188 10.222656 0.207031 10.105469 0.351562 10 C 2.929688 9.949219 5.507812 9.949219 8.085938 10 C 8.558594 10.292969 8.675781 10.695312 8.4375 11.210938 C 8.34375 11.332031 8.226562 11.421875 8.085938 11.484375 C 5.507812 11.535156 2.929688 11.535156 0.351562 11.484375 C 0.207031 11.378906 0.0742188 11.261719 -0.0390625 11.132812 Z M -0.0390625 11.132812 "/>
</g>
<mask id="mask4">
  <g filter="url(#alpha)">
<rect x="0" y="0" width="40" height="40" style="fill:rgb(0%,0%,0%);fill-opacity:0.984314;stroke:none;"/>
  </g>
</mask>
<clipPath id="clip5">
  <rect x="0" y="0" width="40" height="40"/>
</clipPath>
<g id="surface17" clip-path="url(#clip5)">
<path style=" stroke:none;fill-rule:evenodd;fill:rgb(41.176471%,70.588235%,17.647059%);fill-opacity:1;" d="M 14.414062 9.960938 C 16.992188 9.949219 19.570312 9.960938 22.148438 10 C 22.621094 10.292969 22.738281 10.695312 22.5 11.210938 C 22.40625 11.332031 22.289062 11.421875 22.148438 11.484375 C 19.570312 11.535156 16.992188 11.535156 14.414062 11.484375 C 13.800781 10.976562 13.800781 10.46875 14.414062 9.960938 Z M 14.414062 9.960938 "/>
</g>
<mask id="mask5">
  <g filter="url(#alpha)">
<rect x="0" y="0" width="40" height="40" style="fill:rgb(0%,0%,0%);fill-opacity:0.968627;stroke:none;"/>
  </g>
</mask>
<clipPath id="clip6">
  <rect x="0" y="0" width="40" height="40"/>
</clipPath>
<g id="surface20" clip-path="url(#clip6)">
<path style=" stroke:none;fill-rule:evenodd;fill:rgb(41.176471%,70.588235%,17.647059%);fill-opacity:1;" d="M 26.992188 9.960938 C 28.164062 9.949219 29.335938 9.960938 30.507812 10 C 31.003906 10.339844 31.097656 10.769531 30.78125 11.289062 C 30.710938 11.382812 30.621094 11.449219 30.507812 11.484375 C 29.335938 11.535156 28.164062 11.535156 26.992188 11.484375 C 26.378906 10.976562 26.378906 10.46875 26.992188 9.960938 Z M 26.992188 9.960938 "/>
</g>
<mask id="mask6">
  <g filter="url(#alpha)">
<rect x="0" y="0" width="40" height="40" style="fill:rgb(0%,0%,0%);fill-opacity:0.929412;stroke:none;"/>
  </g>
</mask>
<clipPath id="clip7">
  <rect x="0" y="0" width="40" height="40"/>
</clipPath>
<g id="surface23" clip-path="url(#clip7)">
<path style=" stroke:none;fill-rule:evenodd;fill:rgb(41.176471%,70.588235%,17.647059%);fill-opacity:1;" d="M 11.289062 14.726562 C 11.832031 14.589844 12.210938 14.773438 12.421875 15.273438 C 12.796875 16.308594 13.148438 17.347656 13.476562 18.398438 C 13.332031 19.109375 12.917969 19.355469 12.226562 19.140625 C 12.023438 18.988281 11.878906 18.792969 11.796875 18.554688 C 11.5 17.636719 11.1875 16.726562 10.859375 15.820312 C 10.722656 15.335938 10.867188 14.972656 11.289062 14.726562 Z M 11.289062 14.726562 "/>
</g>
<mask id="mask7">
  <g filter="url(#alpha)">
<rect x="0" y="0" width="40" height="40" style="fill:rgb(0%,0%,0%);fill-opacity:0.960784;stroke:none;"/>
  </g>
</mask>
<clipPath id="clip8">
  <rect x="0" y="0" width="40" height="40"/>
</clipPath>
<g id="surface26" clip-path="url(#clip8)">
<path style=" stroke:none;fill-rule:evenodd;fill:rgb(41.176471%,70.588235%,17.647059%);fill-opacity:1;" d="M 39.960938 25.507812 C 39.960938 26.105469 39.960938 26.707031 39.960938 27.304688 C 39.414062 29.542969 38.007812 30.871094 35.742188 31.289062 C 35.59375 32.402344 35.125 33.351562 34.335938 34.140625 C 37.320312 34.070312 39.195312 35.460938 39.960938 38.320312 C 39.960938 38.738281 39.960938 39.152344 39.960938 39.570312 C 39.832031 39.699219 39.699219 39.832031 39.570312 39.960938 C 34.074219 39.960938 28.582031 39.960938 23.085938 39.960938 C 22.714844 39.660156 22.597656 39.269531 22.734375 38.789062 C 22.824219 38.644531 22.941406 38.527344 23.085938 38.4375 C 28.136719 38.398438 33.191406 38.386719 38.242188 38.398438 C 37.890625 37.042969 37.03125 36.195312 35.664062 35.859375 C 30.417969 35.769531 25.171875 35.730469 19.921875 35.742188 C 14.699219 35.730469 9.476562 35.769531 4.257812 35.859375 C 2.890625 36.195312 2.03125 37.042969 1.679688 38.398438 C 6.730469 38.386719 11.785156 38.398438 16.835938 38.4375 C 17.210938 38.722656 17.328125 39.101562 17.1875 39.570312 C 17.082031 39.714844 16.964844 39.847656 16.835938 39.960938 C 11.339844 39.960938 5.847656 39.960938 0.351562 39.960938 C 0.222656 39.832031 0.0898438 39.699219 -0.0390625 39.570312 C -0.0390625 39.128906 -0.0390625 38.683594 -0.0390625 38.242188 C 0.414062 36.304688 1.585938 35.003906 3.476562 34.335938 C 4.546875 33.253906 5.601562 32.160156 6.640625 31.054688 C 8.097656 28.398438 9.558594 25.742188 11.015625 23.085938 C 11.273438 22.550781 11.675781 22.378906 12.226562 22.578125 C 13.289062 23.101562 14.34375 23.636719 15.390625 24.179688 C 15.890625 22.890625 16.359375 21.589844 16.796875 20.273438 C 16.976562 20.023438 17.226562 19.890625 17.539062 19.882812 C 18.53125 20.167969 19.519531 20.457031 20.507812 20.742188 C 20.542969 18.324219 21.664062 16.617188 23.867188 15.625 C 26.164062 14.882812 28.144531 15.375 29.804688 17.109375 C 32.355469 16.398438 34.398438 17.117188 35.9375 19.257812 C 36.359375 20.015625 36.632812 20.824219 36.757812 21.679688 C 38.480469 22.410156 39.546875 23.6875 39.960938 25.507812 Z M 25.429688 16.914062 C 26.996094 16.875 28.191406 17.515625 29.023438 18.828125 C 29.289062 19.003906 29.574219 19.054688 29.882812 18.984375 C 32 18.03125 33.628906 18.566406 34.765625 20.585938 C 34.960938 21.304688 35.09375 22.035156 35.15625 22.773438 C 35.4375 23.003906 35.761719 23.148438 36.132812 23.203125 C 37.816406 23.949219 38.53125 25.238281 38.28125 27.070312 C 37.988281 28.144531 37.347656 28.9375 36.367188 29.453125 C 35.78125 29.648438 35.183594 29.78125 34.570312 29.84375 C 34.421875 29.964844 34.304688 30.109375 34.21875 30.273438 C 34.070312 32.660156 32.808594 33.871094 30.429688 33.90625 C 29.734375 33.757812 29.070312 33.539062 28.4375 33.242188 C 28.320312 33.253906 28.203125 33.269531 28.085938 33.28125 C 25.761719 34.648438 23.664062 34.347656 21.796875 32.382812 C 20.609375 30.703125 20.519531 28.972656 21.523438 27.1875 C 23.070312 27.527344 24.609375 27.933594 26.132812 28.398438 C 26.425781 29.332031 26.765625 30.242188 27.148438 31.132812 C 27.238281 31.21875 27.34375 31.28125 27.460938 31.328125 C 28.453125 31.3125 29.441406 31.234375 30.429688 31.09375 C 30.765625 30.941406 30.949219 30.679688 30.976562 30.3125 C 30.835938 29.515625 30.71875 28.722656 30.625 27.929688 C 31.261719 27.875 31.898438 27.808594 32.539062 27.734375 C 32.875 27.566406 33.046875 27.292969 33.046875 26.914062 C 33.105469 26.105469 33.167969 25.296875 33.242188 24.492188 C 33.269531 24.0625 33.085938 23.765625 32.695312 23.59375 C 31.421875 23.476562 30.144531 23.375 28.867188 23.28125 C 26.632812 22.59375 24.394531 21.929688 22.148438 21.289062 C 21.980469 19.632812 22.578125 18.34375 23.945312 17.421875 C 24.421875 17.167969 24.914062 16.996094 25.429688 16.914062 Z M 18.007812 21.757812 C 21.449219 22.761719 24.886719 23.789062 28.320312 24.84375 C 29.382812 24.972656 30.453125 25.0625 31.523438 25.117188 C 31.511719 25.484375 31.484375 25.847656 31.445312 26.210938 C 30.769531 26.238281 30.089844 26.277344 29.414062 26.328125 C 29.015625 26.453125 28.804688 26.726562 28.789062 27.148438 C 28.925781 27.957031 29.058594 28.761719 29.179688 29.570312 C 28.875 29.660156 28.578125 29.660156 28.28125 29.570312 C 28.042969 28.78125 27.785156 28 27.5 27.226562 C 27.410156 27.136719 27.316406 27.042969 27.226562 26.953125 C 23.863281 26.054688 20.503906 25.140625 17.148438 24.21875 C 17.472656 23.414062 17.761719 22.59375 18.007812 21.757812 Z M 12.148438 24.414062 C 12.988281 24.796875 13.824219 25.199219 14.648438 25.625 C 13.738281 27.558594 12.839844 29.5 11.953125 31.445312 C 11.914062 32.355469 11.902344 33.269531 11.914062 34.179688 C 9.933594 34.191406 7.957031 34.179688 5.976562 34.140625 C 6.691406 33.371094 7.410156 32.605469 8.125 31.835938 C 9.46875 29.359375 10.808594 26.882812 12.148438 24.414062 Z M 16.367188 25.742188 C 17.539062 26.054688 18.710938 26.378906 19.882812 26.71875 C 18.792969 29.058594 18.988281 31.285156 20.46875 33.398438 C 20.714844 33.644531 20.964844 33.894531 21.210938 34.140625 C 18.660156 34.179688 16.105469 34.191406 13.554688 34.179688 C 13.542969 33.398438 13.554688 32.617188 13.59375 31.835938 C 14.539062 29.8125 15.464844 27.78125 16.367188 25.742188 Z M 16.367188 25.742188 "/>
</g>
<mask id="mask8">
  <g filter="url(#alpha)">
<rect x="0" y="0" width="40" height="40" style="fill:rgb(0%,0%,0%);fill-opacity:0.92549;stroke:none;"/>
  </g>
</mask>
<clipPath id="clip9">
  <rect x="0" y="0" width="40" height="40"/>
</clipPath>
<g id="surface29" clip-path="url(#clip9)">
<path style=" stroke:none;fill-rule:evenodd;fill:rgb(41.176471%,70.588235%,17.647059%);fill-opacity:1;" d="M 6.835938 18.632812 C 7.640625 18.890625 8.421875 19.21875 9.179688 19.609375 C 9.511719 19.964844 9.578125 20.367188 9.375 20.820312 C 9.125 21.082031 8.828125 21.171875 8.476562 21.09375 C 7.816406 20.800781 7.164062 20.488281 6.523438 20.15625 C 6.230469 19.863281 6.136719 19.511719 6.25 19.101562 C 6.382812 18.859375 6.578125 18.703125 6.835938 18.632812 Z M 6.835938 18.632812 "/>
</g>
<mask id="mask9">
  <g filter="url(#alpha)">
<rect x="0" y="0" width="40" height="40" style="fill:rgb(0%,0%,0%);fill-opacity:0.905882;stroke:none;"/>
  </g>
</mask>
<clipPath id="clip10">
  <rect x="0" y="0" width="40" height="40"/>
</clipPath>
<g id="surface32" clip-path="url(#clip10)">
<path style=" stroke:none;fill-rule:evenodd;fill:rgb(41.176471%,70.588235%,17.647059%);fill-opacity:1;" d="M 20.351562 39.960938 C 20.089844 39.960938 19.832031 39.960938 19.570312 39.960938 C 19.199219 39.660156 19.082031 39.269531 19.21875 38.789062 C 19.503906 38.414062 19.882812 38.296875 20.351562 38.4375 C 20.726562 38.722656 20.84375 39.101562 20.703125 39.570312 C 20.597656 39.714844 20.480469 39.847656 20.351562 39.960938 Z M 20.351562 39.960938 "/>
</g>
</defs>
<g id="surface1">
<use xlink:href="#surface5" mask="url(#mask0)"/>
<use xlink:href="#surface8" mask="url(#mask1)"/>
<use xlink:href="#surface11" mask="url(#mask2)"/>
<use xlink:href="#surface14" mask="url(#mask3)"/>
<use xlink:href="#surface17" mask="url(#mask4)"/>
<use xlink:href="#surface20" mask="url(#mask5)"/>
<use xlink:href="#surface23" mask="url(#mask6)"/>
<use xlink:href="#surface26" mask="url(#mask7)"/>
<use xlink:href="#surface29" mask="url(#mask8)"/>
<use xlink:href="#surface32" mask="url(#mask9)"/>
</g>
</svg>
