<?xml version="1.0" encoding="UTF-8"?>
<svg xmlns="http://www.w3.org/2000/svg" xmlns:xlink="http://www.w3.org/1999/xlink" width="40px" height="px" viewBox="0 0 40 40" version="1.1">
<defs>
<filter id="alpha" filterUnits="objectBoundingBox" x="0%" y="0%" width="100%" height="100%">
  <feColorMatrix type="matrix" in="SourceGraphic" values="0 0 0 0 1 0 0 0 0 1 0 0 0 0 1 0 0 0 1 0"/>
</filter>
<mask id="mask0">
  <g filter="url(#alpha)">
<rect x="0" y="0" width="40" height="40" style="fill:rgb(0%,0%,0%);fill-opacity:0.960784;stroke:none;"/>
  </g>
</mask>
<clipPath id="clip1">
  <rect x="0" y="0" width="40" height="40"/>
</clipPath>
<g id="surface5" clip-path="url(#clip1)">
<path style=" stroke:none;fill-rule:evenodd;fill:rgb(41.176471%,70.588235%,17.647059%);fill-opacity:1;" d="M 39.960938 19.648438 C 39.960938 20.402344 39.960938 21.160156 39.960938 21.914062 C 39.296875 25.792969 37.097656 28.371094 33.359375 29.648438 C 33.320312 31.964844 33.308594 34.285156 33.320312 36.601562 C 35.351562 36.589844 37.382812 36.601562 39.414062 36.640625 C 39.65625 36.714844 39.839844 36.859375 39.960938 37.070312 C 39.960938 37.332031 39.960938 37.589844 39.960938 37.851562 C 39.839844 38.0625 39.65625 38.207031 39.414062 38.28125 C 26.445312 38.332031 13.476562 38.332031 0.507812 38.28125 C 0.265625 38.207031 0.0820312 38.0625 -0.0390625 37.851562 C -0.0390625 37.589844 -0.0390625 37.332031 -0.0390625 37.070312 C 0.0820312 36.859375 0.265625 36.714844 0.507812 36.640625 C 1.160156 36.601562 1.808594 36.589844 2.460938 36.601562 C 2.472656 35.847656 2.460938 35.089844 2.421875 34.335938 C 1.609375 33.507812 1.402344 32.542969 1.796875 31.445312 C 1.949219 31.117188 2.15625 30.832031 2.421875 30.585938 C 2.472656 29.621094 2.472656 28.660156 2.421875 27.695312 C 1.332031 26.441406 1.332031 25.191406 2.421875 23.945312 C 2.488281 23.550781 2.472656 23.160156 2.382812 22.773438 C 1.875 23 1.355469 23.183594 0.820312 23.320312 C 0.449219 23.304688 0.164062 23.148438 -0.0390625 22.851562 C -0.0390625 21.496094 -0.0390625 20.144531 -0.0390625 18.789062 C 0.0507812 18.53125 0.230469 18.363281 0.507812 18.28125 C 4.753906 16.535156 9.023438 14.855469 13.320312 13.242188 C 13.613281 13.320312 13.898438 13.382812 14.179688 13.4375 C 14.460938 12.753906 14.851562 12.144531 15.351562 11.601562 C 14.351562 7.8125 15.472656 4.828125 18.710938 2.65625 C 21.726562 1.15625 24.589844 1.390625 27.304688 3.359375 C 27.925781 3.902344 28.460938 4.515625 28.90625 5.195312 C 32.453125 4.457031 35.238281 5.578125 37.265625 8.554688 C 38.394531 10.582031 38.617188 12.703125 37.929688 14.921875 C 39.011719 16.328125 39.6875 17.902344 39.960938 19.648438 Z M 22.070312 3.320312 C 24.203125 3.269531 25.894531 4.089844 27.148438 5.78125 C 23.835938 7.96875 22.664062 11.003906 23.632812 14.882812 C 23.214844 15.535156 22.800781 16.183594 22.382812 16.835938 C 20.277344 15.980469 18.167969 15.136719 16.054688 14.296875 C 15.945312 14.269531 15.867188 14.203125 15.820312 14.101562 C 16.21875 13.382812 16.671875 12.707031 17.1875 12.070312 C 17.238281 11.886719 17.238281 11.707031 17.1875 11.523438 C 16.105469 8.519531 16.847656 6.085938 19.414062 4.21875 C 20.25 3.738281 21.132812 3.4375 22.070312 3.320312 Z M 30.039062 6.679688 C 33.109375 6.554688 35.203125 7.90625 36.328125 10.742188 C 36.742188 12.125 36.664062 13.476562 36.09375 14.804688 C 36.042969 15.039062 36.042969 15.273438 36.09375 15.507812 C 38.503906 18.125 38.996094 21.066406 37.578125 24.335938 C 35.703125 27.53125 32.929688 28.820312 29.257812 28.203125 C 27.570312 27.796875 26.175781 26.921875 25.078125 25.585938 C 24.933594 24.960938 24.648438 24.414062 24.21875 23.945312 C 24.167969 23.554688 24.167969 23.164062 24.21875 22.773438 C 24.8125 23.121094 25.453125 23.289062 26.132812 23.28125 C 26.46875 23.113281 26.640625 22.839844 26.640625 22.460938 C 26.714844 21.179688 26.6875 19.902344 26.5625 18.632812 C 26.363281 18.457031 26.140625 18.316406 25.898438 18.203125 C 25.300781 17.96875 24.699219 17.734375 24.101562 17.5 C 24.445312 16.828125 24.875 16.214844 25.390625 15.664062 C 25.488281 15.507812 25.554688 15.335938 25.585938 15.15625 C 24.441406 12.335938 24.988281 9.914062 27.226562 7.890625 C 28.070312 7.25 29.007812 6.847656 30.039062 6.679688 Z M 13.085938 15.117188 C 13.300781 15.109375 13.511719 15.148438 13.710938 15.234375 C 17.433594 16.730469 21.160156 18.230469 24.882812 19.726562 C 24.960938 20.191406 24.988281 20.660156 24.960938 21.132812 C 21.097656 19.613281 17.230469 18.101562 13.359375 16.601562 C 12.9375 16.660156 12.535156 16.777344 12.148438 16.953125 C 8.683594 18.347656 5.222656 19.738281 1.757812 21.132812 C 1.65625 20.648438 1.65625 20.164062 1.757812 19.6875 C 5.558594 18.199219 9.332031 16.675781 13.085938 15.117188 Z M 13.242188 18.398438 C 14.519531 18.898438 15.796875 19.40625 17.070312 19.921875 C 14.542969 19.972656 12.019531 19.972656 9.492188 19.921875 C 10.757812 19.429688 12.007812 18.921875 13.242188 18.398438 Z M 12.773438 21.601562 C 15.066406 21.589844 17.355469 21.601562 19.648438 21.640625 C 20.355469 21.660156 21.058594 21.710938 21.757812 21.796875 C 22.027344 21.820312 22.25 21.9375 22.421875 22.148438 C 22.460938 22.511719 22.472656 22.875 22.460938 23.242188 C 16.367188 23.242188 10.273438 23.242188 4.179688 23.242188 C 4.167969 22.851562 4.179688 22.460938 4.21875 22.070312 C 4.484375 21.9375 4.757812 21.820312 5.039062 21.71875 C 7.628906 21.707031 10.207031 21.667969 12.773438 21.601562 Z M 4.101562 24.960938 C 9.988281 24.949219 15.871094 24.960938 21.757812 25 C 22.15625 25.007812 22.546875 25.0625 22.929688 25.15625 C 23.253906 25.457031 23.320312 25.808594 23.125 26.210938 C 22.996094 26.390625 22.828125 26.507812 22.617188 26.5625 C 16.417969 26.613281 10.222656 26.613281 4.023438 26.5625 C 3.363281 26.324219 3.195312 25.894531 3.515625 25.273438 C 3.691406 25.117188 3.886719 25.011719 4.101562 24.960938 Z M 24.257812 27.460938 C 24.941406 27.898438 25.621094 28.351562 26.289062 28.828125 C 26.910156 29.148438 27.546875 29.421875 28.203125 29.648438 C 28.242188 31.964844 28.253906 34.285156 28.242188 36.601562 C 26.886719 36.601562 25.535156 36.601562 24.179688 36.601562 C 24.167969 35.847656 24.179688 35.089844 24.21875 34.335938 C 24.988281 33.460938 25.167969 32.472656 24.765625 31.367188 C 24.640625 31.089844 24.457031 30.855469 24.21875 30.664062 C 24.15625 29.59375 24.167969 28.523438 24.257812 27.460938 Z M 4.179688 28.320312 C 5.820312 28.320312 7.460938 28.320312 9.101562 28.320312 C 9.101562 28.867188 9.101562 29.414062 9.101562 29.960938 C 7.460938 29.960938 5.820312 29.960938 4.179688 29.960938 C 4.179688 29.414062 4.179688 28.867188 4.179688 28.320312 Z M 10.820312 28.320312 C 12.460938 28.320312 14.101562 28.320312 15.742188 28.320312 C 15.742188 31.082031 15.742188 33.839844 15.742188 36.601562 C 14.101562 36.601562 12.460938 36.601562 10.820312 36.601562 C 10.820312 33.839844 10.820312 31.082031 10.820312 28.320312 Z M 17.460938 28.320312 C 19.128906 28.320312 20.792969 28.320312 22.460938 28.320312 C 22.460938 28.867188 22.460938 29.414062 22.460938 29.960938 C 20.792969 29.960938 19.128906 29.960938 17.460938 29.960938 C 17.460938 29.414062 17.460938 28.867188 17.460938 28.320312 Z M 29.960938 29.960938 C 30.507812 29.960938 31.054688 29.960938 31.601562 29.960938 C 31.601562 32.148438 31.601562 34.335938 31.601562 36.523438 C 31.054688 36.5625 30.507812 36.589844 29.960938 36.601562 C 29.960938 34.386719 29.960938 32.175781 29.960938 29.960938 Z M 3.867188 31.679688 C 5.613281 31.679688 7.355469 31.679688 9.101562 31.679688 C 9.101562 32.199219 9.101562 32.722656 9.101562 33.242188 C 7.355469 33.253906 5.613281 33.242188 3.867188 33.203125 C 3.144531 32.695312 3.144531 32.1875 3.867188 31.679688 Z M 17.460938 31.679688 C 19.207031 31.667969 20.949219 31.679688 22.695312 31.71875 C 23.265625 32.015625 23.382812 32.445312 23.046875 33.007812 C 22.9375 33.082031 22.820312 33.148438 22.695312 33.203125 C 20.949219 33.242188 19.207031 33.253906 17.460938 33.242188 C 17.460938 32.722656 17.460938 32.199219 17.460938 31.679688 Z M 4.179688 34.960938 C 5.820312 34.960938 7.460938 34.960938 9.101562 34.960938 C 9.101562 35.507812 9.101562 36.054688 9.101562 36.601562 C 7.460938 36.601562 5.820312 36.601562 4.179688 36.601562 C 4.179688 36.054688 4.179688 35.507812 4.179688 34.960938 Z M 17.460938 34.960938 C 19.128906 34.960938 20.792969 34.960938 22.460938 34.960938 C 22.460938 35.507812 22.460938 36.054688 22.460938 36.601562 C 20.792969 36.601562 19.128906 36.601562 17.460938 36.601562 C 17.460938 36.054688 17.460938 35.507812 17.460938 34.960938 Z M 17.460938 34.960938 "/>
</g>
<mask id="mask1">
  <g filter="url(#alpha)">
<rect x="0" y="0" width="40" height="40" style="fill:rgb(0%,0%,0%);fill-opacity:0.901961;stroke:none;"/>
  </g>
</mask>
<clipPath id="clip2">
  <rect x="0" y="0" width="40" height="40"/>
</clipPath>
<g id="surface8" clip-path="url(#clip2)">
<path style=" stroke:none;fill-rule:evenodd;fill:rgb(41.176471%,70.588235%,17.647059%);fill-opacity:1;" d="M 12.226562 31.601562 C 13.070312 31.597656 13.421875 32.015625 13.28125 32.851562 C 13.023438 33.289062 12.648438 33.433594 12.148438 33.28125 C 11.609375 32.988281 11.464844 32.558594 11.71875 31.992188 C 11.859375 31.808594 12.027344 31.679688 12.226562 31.601562 Z M 12.226562 31.601562 "/>
</g>
</defs>
<g id="surface1">
<use xlink:href="#surface5" mask="url(#mask0)"/>
<use xlink:href="#surface8" mask="url(#mask1)"/>
</g>
</svg>
