<?xml version="1.0" encoding="UTF-8"?>
<svg xmlns="http://www.w3.org/2000/svg" xmlns:xlink="http://www.w3.org/1999/xlink" width="40px" height="px" viewBox="0 0 40 36" version="1.1">
<defs>
<filter id="alpha" filterUnits="objectBoundingBox" x="0%" y="0%" width="100%" height="100%">
  <feColorMatrix type="matrix" in="SourceGraphic" values="0 0 0 0 1 0 0 0 0 1 0 0 0 0 1 0 0 0 1 0"/>
</filter>
<mask id="mask0">
  <g filter="url(#alpha)">
<rect x="0" y="0" width="40" height="36" style="fill:rgb(0%,0%,0%);fill-opacity:0.937255;stroke:none;"/>
  </g>
</mask>
<clipPath id="clip1">
  <rect x="0" y="0" width="40" height="36"/>
</clipPath>
<g id="surface5" clip-path="url(#clip1)">
<path style=" stroke:none;fill-rule:evenodd;fill:rgb(41.176471%,70.588235%,17.647059%);fill-opacity:1;" d="M 17.226562 -0.0390625 C 17.460938 -0.0390625 17.695312 -0.0390625 17.929688 -0.0390625 C 18.863281 0.457031 19.800781 0.953125 20.742188 1.453125 C 20.960938 1.671875 21.027344 1.933594 20.9375 2.238281 C 19.984375 6.199219 19.023438 10.15625 18.046875 14.109375 C 17.65625 14.527344 17.265625 14.527344 16.875 14.109375 C 16.828125 13.980469 16.789062 13.847656 16.757812 13.714844 C 17.679688 9.972656 18.59375 6.226562 19.492188 2.476562 C 19.484375 2.402344 19.457031 2.335938 19.414062 2.28125 C 19.230469 2.1875 19.050781 2.097656 18.867188 2.003906 C 17.546875 6.5 16.21875 10.992188 14.882812 15.484375 C 16.054688 16.125 17.226562 16.769531 18.398438 17.410156 C 18.871094 15.550781 19.664062 13.847656 20.78125 12.300781 C 21.378906 11.597656 22.066406 11.007812 22.851562 10.53125 C 24.101562 10.480469 25.351562 10.480469 26.601562 10.53125 C 26.832031 10.632812 26.972656 10.800781 27.03125 11.042969 C 27.070312 13.140625 27.082031 15.234375 27.070312 17.332031 C 27.359375 17.34375 27.644531 17.332031 27.929688 17.292969 C 29.507812 16.632812 31.148438 16.394531 32.851562 16.585938 C 33.324219 16.632812 33.792969 16.710938 34.257812 16.820312 C 34.65625 17.085938 34.75 17.4375 34.53125 17.882812 C 34.460938 17.976562 34.371094 18.042969 34.257812 18.078125 C 33.734375 18.078125 33.214844 18.027344 32.695312 17.921875 C 31.292969 17.761719 29.9375 17.941406 28.632812 18.472656 C 28.09375 20.097656 27.585938 21.734375 27.109375 23.382812 C 27.015625 23.722656 27.105469 23.996094 27.382812 24.210938 C 27.449219 24.265625 27.5 24.25 27.539062 24.171875 C 29.039062 22.054688 31.042969 21.335938 33.554688 22.007812 C 34.738281 22.425781 35.648438 23.171875 36.289062 24.25 C 37.070312 24.328125 37.851562 24.355469 38.632812 24.328125 C 38.644531 23.984375 38.632812 23.644531 38.59375 23.304688 C 38.285156 22.019531 37.933594 20.75 37.539062 19.492188 C 36.792969 19.132812 36.039062 18.789062 35.273438 18.472656 C 34.898438 17.855469 35.054688 17.453125 35.742188 17.253906 C 36.800781 17.609375 37.804688 18.082031 38.75 18.667969 C 39.15625 20.144531 39.558594 21.609375 39.960938 23.070312 C 39.960938 23.828125 39.960938 24.589844 39.960938 25.347656 C 39.898438 25.480469 39.792969 25.570312 39.648438 25.625 C 38.738281 25.664062 37.824219 25.675781 36.914062 25.664062 C 37.304688 27.644531 36.785156 29.335938 35.351562 30.734375 C 36.730469 30.761719 38.113281 30.785156 39.492188 30.8125 C 39.679688 30.855469 39.835938 30.949219 39.960938 31.085938 C 39.960938 31.324219 39.960938 31.558594 39.960938 31.792969 C 39.847656 31.871094 39.742188 31.960938 39.648438 32.070312 C 26.523438 32.121094 13.398438 32.121094 0.273438 32.070312 C 0.179688 31.960938 0.0742188 31.871094 -0.0390625 31.792969 C -0.0390625 31.585938 -0.0390625 31.375 -0.0390625 31.164062 C 0.0585938 30.976562 0.214844 30.859375 0.429688 30.8125 C 1.367188 30.773438 2.304688 30.761719 3.242188 30.773438 C 3.203125 29.113281 3.242188 27.464844 3.359375 25.820312 C 3.429688 25.726562 3.519531 25.660156 3.632812 25.625 C 4.960938 25.570312 6.289062 25.570312 7.617188 25.625 C 7.796875 25.710938 7.914062 25.855469 7.96875 26.058594 C 8.019531 26.527344 8.019531 27 7.96875 27.472656 C 7.878906 27.8125 7.65625 27.96875 7.304688 27.941406 C 7.035156 27.96875 6.839844 27.867188 6.71875 27.628906 C 6.679688 27.394531 6.667969 27.160156 6.679688 26.921875 C 5.976562 26.921875 5.273438 26.921875 4.570312 26.921875 C 4.570312 28.207031 4.570312 29.488281 4.570312 30.773438 C 5.324219 30.773438 6.082031 30.773438 6.835938 30.773438 C 6.824219 30.457031 6.835938 30.144531 6.875 29.828125 C 6.941406 29.75 7.003906 29.671875 7.070312 29.59375 C 7.683594 29.296875 8.308594 29.023438 8.945312 28.769531 C 8.6875 28.46875 8.648438 28.144531 8.828125 27.785156 C 9.191406 27.472656 9.558594 27.472656 9.921875 27.785156 C 10.109375 28.140625 10.320312 28.480469 10.546875 28.808594 C 10.707031 29.363281 10.511719 29.71875 9.960938 29.867188 C 9.367188 30.117188 8.769531 30.339844 8.164062 30.539062 C 8.164062 30.617188 8.164062 30.695312 8.164062 30.773438 C 10.089844 30.785156 12.019531 30.773438 13.945312 30.734375 C 12.101562 28.722656 11.828125 26.507812 13.125 24.089844 C 13.542969 23.476562 14.050781 22.953125 14.648438 22.519531 C 12.945312 21.324219 12.308594 19.699219 12.734375 17.644531 C 12.996094 16.914062 13.253906 16.179688 13.515625 15.445312 C 14.867188 10.894531 16.171875 6.335938 17.421875 1.769531 C 13.570312 5.566406 9.742188 9.390625 5.9375 13.246094 C 5.886719 13.296875 5.886719 13.347656 5.9375 13.402344 C 6.199219 13.640625 6.433594 13.902344 6.640625 14.1875 C 8.917969 11.84375 11.199219 9.496094 13.476562 7.152344 C 14.382812 6.964844 14.679688 7.320312 14.375 8.214844 C 11.941406 10.714844 9.503906 13.21875 7.070312 15.71875 C 6.953125 15.800781 6.820312 15.839844 6.679688 15.839844 C 6.65625 16.105469 6.679688 16.367188 6.757812 16.625 C 7.703125 17.164062 8.054688 17.976562 7.8125 19.0625 C 8.914062 19.554688 10.019531 20.039062 11.132812 20.515625 C 11.324219 20.703125 11.46875 20.925781 11.5625 21.183594 C 11.871094 21.898438 12.171875 22.621094 12.460938 23.34375 C 11.980469 24.457031 11.445312 25.546875 10.859375 26.605469 C 10.261719 27.007812 9.859375 26.863281 9.648438 26.175781 C 10.078125 25.214844 10.523438 24.261719 10.976562 23.304688 C 10.757812 22.75 10.523438 22.199219 10.273438 21.65625 C 9.171875 21.132812 8.050781 20.648438 6.914062 20.199219 C 6.367188 20.148438 5.820312 20.148438 5.273438 20.199219 C 4.1875 20.648438 3.117188 21.132812 2.070312 21.65625 C 1.84375 22.222656 1.609375 22.785156 1.367188 23.34375 C 1.765625 24.214844 2.195312 25.066406 2.65625 25.898438 C 2.652344 26.78125 2.261719 27.015625 1.484375 26.605469 C 0.988281 25.625 0.480469 24.65625 -0.0390625 23.699219 C -0.0390625 23.488281 -0.0390625 23.28125 -0.0390625 23.070312 C 0.277344 22.40625 0.578125 21.722656 0.859375 21.027344 C 0.929688 20.820312 1.046875 20.652344 1.210938 20.515625 C 2.253906 20.042969 3.292969 19.570312 4.335938 19.101562 C 3.96875 18.027344 4.269531 17.203125 5.234375 16.625 C 5.285156 15.96875 5.285156 15.3125 5.234375 14.660156 C 4.894531 14.34375 4.582031 14 4.296875 13.636719 C 4.234375 13.367188 4.257812 13.101562 4.375 12.851562 C 8.699219 8.59375 12.980469 4.296875 17.226562 -0.0390625 Z M 23.242188 11.828125 C 24.074219 11.828125 24.910156 11.828125 25.742188 11.828125 C 25.730469 13.953125 25.742188 16.074219 25.78125 18.195312 C 25.847656 18.367188 25.964844 18.484375 26.132812 18.550781 C 26.441406 18.617188 26.753906 18.65625 27.070312 18.667969 C 26.769531 19.796875 26.457031 20.925781 26.132812 22.046875 C 25.167969 22.0625 24.207031 22.046875 23.242188 22.007812 C 22.777344 21.976562 22.359375 21.816406 21.992188 21.539062 C 21.417969 20.984375 20.871094 20.40625 20.351562 19.808594 C 21.367188 19.78125 22.382812 19.753906 23.398438 19.730469 C 23.539062 19.667969 23.65625 19.574219 23.75 19.453125 C 23.875 18.542969 23.902344 17.625 23.828125 16.703125 C 23.632812 16.179688 23.28125 16.035156 22.773438 16.269531 C 22.597656 16.394531 22.503906 16.5625 22.5 16.78125 C 22.460938 17.332031 22.449219 17.882812 22.460938 18.433594 C 21.511719 18.46875 20.574219 18.429688 19.648438 18.3125 C 20.003906 16.320312 20.800781 14.523438 22.03125 12.929688 C 22.402344 12.515625 22.808594 12.148438 23.242188 11.828125 Z M 14.414062 16.859375 C 15.773438 17.503906 17.101562 18.210938 18.398438 18.984375 C 18.472656 19.28125 18.574219 19.570312 18.710938 19.847656 C 18.410156 20.441406 18.121094 21.046875 17.851562 21.65625 C 17.230469 21.773438 16.605469 21.839844 15.976562 21.851562 C 15.46875 21.394531 14.960938 20.933594 14.453125 20.476562 C 13.976562 19.785156 13.820312 19.027344 13.984375 18.195312 C 14.136719 17.75 14.28125 17.304688 14.414062 16.859375 Z M 5.898438 17.804688 C 6.339844 17.839844 6.535156 18.074219 6.484375 18.511719 C 6.34375 18.785156 6.121094 18.878906 5.820312 18.785156 C 5.402344 18.433594 5.429688 18.105469 5.898438 17.804688 Z M 19.570312 21.105469 C 20.136719 21.554688 20.671875 22.054688 21.171875 22.597656 C 21.140625 22.777344 21.050781 22.933594 20.898438 23.070312 C 20.386719 22.617188 19.816406 22.261719 19.179688 22.007812 C 19.320312 21.710938 19.449219 21.410156 19.570312 21.105469 Z M 17.226562 23.070312 C 19.640625 23.21875 20.996094 24.503906 21.289062 26.921875 C 21.21875 27.746094 20.984375 28.519531 20.585938 29.238281 C 20.847656 29.972656 21.277344 30.089844 21.875 29.59375 C 22.527344 28.4375 22.734375 27.207031 22.5 25.898438 C 22.320312 25.25 22.113281 24.621094 21.875 24.011719 C 22.097656 23.8125 22.292969 23.589844 22.460938 23.34375 C 23.554688 23.371094 24.648438 23.386719 25.742188 23.382812 C 25.671875 24.339844 26.046875 25.046875 26.875 25.507812 C 26.46875 27.527344 26.976562 29.269531 28.398438 30.734375 C 24.648438 30.785156 20.898438 30.785156 17.148438 30.734375 C 15.015625 30.359375 13.84375 29.085938 13.632812 26.921875 C 13.871094 24.714844 15.070312 23.433594 17.226562 23.070312 Z M 31.601562 23.070312 C 34.421875 23.273438 35.761719 24.792969 35.625 27.628906 C 35.128906 29.582031 33.878906 30.628906 31.875 30.773438 C 29.601562 30.492188 28.339844 29.207031 28.085938 26.921875 C 28.3125 24.753906 29.484375 23.46875 31.601562 23.070312 Z M 31.601562 23.070312 "/>
</g>
<mask id="mask1">
  <g filter="url(#alpha)">
<rect x="0" y="0" width="40" height="36" style="fill:rgb(0%,0%,0%);fill-opacity:0.92549;stroke:none;"/>
  </g>
</mask>
<clipPath id="clip2">
  <rect x="0" y="0" width="40" height="36"/>
</clipPath>
<g id="surface8" clip-path="url(#clip2)">
<path style=" stroke:none;fill-rule:evenodd;fill:rgb(41.176471%,70.588235%,17.647059%);fill-opacity:1;" d="M 17.148438 24.640625 C 18.628906 24.636719 19.488281 25.371094 19.726562 26.84375 C 19.710938 27.304688 19.476562 27.566406 19.023438 27.628906 C 18.84375 27.574219 18.671875 27.492188 18.515625 27.394531 C 18.4375 26.984375 18.292969 26.605469 18.085938 26.253906 C 17.292969 25.808594 16.769531 26.03125 16.523438 26.921875 C 16.65625 27.605469 17.070312 27.933594 17.773438 27.902344 C 18.214844 28.285156 18.242188 28.679688 17.851562 29.082031 C 16.632812 29.273438 15.785156 28.789062 15.3125 27.628906 C 15.03125 26.066406 15.644531 25.070312 17.148438 24.640625 Z M 17.148438 24.640625 "/>
</g>
<mask id="mask2">
  <g filter="url(#alpha)">
<rect x="0" y="0" width="40" height="36" style="fill:rgb(0%,0%,0%);fill-opacity:0.921569;stroke:none;"/>
  </g>
</mask>
<clipPath id="clip3">
  <rect x="0" y="0" width="40" height="36"/>
</clipPath>
<g id="surface11" clip-path="url(#clip3)">
<path style=" stroke:none;fill-rule:evenodd;fill:rgb(41.176471%,70.588235%,17.647059%);fill-opacity:1;" d="M 31.601562 24.640625 C 33.121094 24.652344 33.980469 25.410156 34.179688 26.921875 C 33.964844 27.582031 33.5625 27.738281 32.96875 27.394531 C 32.84375 27.085938 32.742188 26.769531 32.65625 26.449219 C 32.191406 25.875 31.695312 25.847656 31.171875 26.371094 C 30.828125 27.335938 31.179688 27.847656 32.226562 27.902344 C 32.5625 28.199219 32.625 28.554688 32.421875 28.964844 C 31.558594 29.304688 30.804688 29.121094 30.15625 28.414062 C 29.34375 27.117188 29.515625 25.976562 30.664062 24.996094 C 30.972656 24.835938 31.285156 24.71875 31.601562 24.640625 Z M 31.601562 24.640625 "/>
</g>
<mask id="mask3">
  <g filter="url(#alpha)">
<rect x="0" y="0" width="40" height="36" style="fill:rgb(0%,0%,0%);fill-opacity:0.945098;stroke:none;"/>
  </g>
</mask>
<clipPath id="clip4">
  <rect x="0" y="0" width="40" height="36"/>
</clipPath>
<g id="surface14" clip-path="url(#clip4)">
<path style=" stroke:none;fill-rule:evenodd;fill:rgb(41.176471%,70.588235%,17.647059%);fill-opacity:1;" d="M 16.445312 35.960938 C 11.054688 35.960938 5.664062 35.960938 0.273438 35.960938 C 0.144531 35.882812 0.0390625 35.777344 -0.0390625 35.644531 C -0.0390625 35.4375 -0.0390625 35.226562 -0.0390625 35.015625 C 0.0859375 34.824219 0.265625 34.707031 0.507812 34.664062 C 5.742188 34.609375 10.976562 34.609375 16.210938 34.664062 C 16.652344 34.808594 16.824219 35.109375 16.71875 35.566406 C 16.640625 35.710938 16.550781 35.84375 16.445312 35.960938 Z M 16.445312 35.960938 "/>
</g>
<mask id="mask4">
  <g filter="url(#alpha)">
<rect x="0" y="0" width="40" height="36" style="fill:rgb(0%,0%,0%);fill-opacity:0.945098;stroke:none;"/>
  </g>
</mask>
<clipPath id="clip5">
  <rect x="0" y="0" width="40" height="36"/>
</clipPath>
<g id="surface17" clip-path="url(#clip5)">
<path style=" stroke:none;fill-rule:evenodd;fill:rgb(41.176471%,70.588235%,17.647059%);fill-opacity:1;" d="M 39.960938 35.015625 C 39.960938 35.226562 39.960938 35.4375 39.960938 35.644531 C 39.882812 35.777344 39.777344 35.882812 39.648438 35.960938 C 32.800781 35.960938 25.949219 35.960938 19.101562 35.960938 C 18.820312 35.707031 18.730469 35.390625 18.828125 35.015625 C 18.957031 34.835938 19.125 34.71875 19.335938 34.664062 C 26.027344 34.609375 32.722656 34.609375 39.414062 34.664062 C 39.65625 34.707031 39.835938 34.824219 39.960938 35.015625 Z M 39.960938 35.015625 "/>
</g>
</defs>
<g id="surface1">
<use xlink:href="#surface5" mask="url(#mask0)"/>
<use xlink:href="#surface8" mask="url(#mask1)"/>
<use xlink:href="#surface11" mask="url(#mask2)"/>
<use xlink:href="#surface14" mask="url(#mask3)"/>
<use xlink:href="#surface17" mask="url(#mask4)"/>
</g>
</svg>
