<?xml version="1.0" encoding="UTF-8"?>
<svg xmlns="http://www.w3.org/2000/svg" xmlns:xlink="http://www.w3.org/1999/xlink" width="40px" height="px" viewBox="0 0 40 40" version="1.1">
<defs>
<filter id="alpha" filterUnits="objectBoundingBox" x="0%" y="0%" width="100%" height="100%">
  <feColorMatrix type="matrix" in="SourceGraphic" values="0 0 0 0 1 0 0 0 0 1 0 0 0 0 1 0 0 0 1 0"/>
</filter>
<mask id="mask0">
  <g filter="url(#alpha)">
<rect x="0" y="0" width="40" height="40" style="fill:rgb(0%,0%,0%);fill-opacity:0.941176;stroke:none;"/>
  </g>
</mask>
<clipPath id="clip1">
  <rect x="0" y="0" width="40" height="40"/>
</clipPath>
<g id="surface5" clip-path="url(#clip1)">
<path style=" stroke:none;fill-rule:evenodd;fill:rgb(41.176471%,70.588235%,17.647059%);fill-opacity:1;" d="M 17.460938 6.835938 C 20.046875 6.773438 22.625 6.863281 25.195312 7.109375 C 26.554688 7.242188 27.855469 7.578125 29.101562 8.125 C 29.605469 8.339844 29.902344 8.71875 30 9.257812 C 30.207031 12.878906 30.402344 16.496094 30.585938 20.117188 C 32.15625 20.589844 33.328125 21.554688 34.101562 23.007812 C 35.421875 23.246094 36.75 23.441406 38.085938 23.59375 C 39.125 23.9375 39.527344 24.65625 39.296875 25.742188 C 39.101562 26.25 38.75 26.601562 38.242188 26.796875 C 36.765625 26.816406 35.332031 27.078125 33.945312 27.578125 C 34.695312 27.945312 35.386719 28.402344 36.015625 28.945312 C 36.503906 30.644531 35.867188 31.386719 34.101562 31.171875 C 32.304688 30.457031 30.457031 29.921875 28.554688 29.570312 C 28.527344 29.582031 28.503906 29.597656 28.476562 29.609375 C 28.703125 30.007812 28.765625 30.4375 28.671875 30.898438 C 28.527344 31.355469 28.230469 31.652344 27.773438 31.796875 C 25.253906 31.972656 23.054688 31.230469 21.171875 29.570312 C 18.609375 31.457031 15.730469 32.566406 12.539062 32.890625 C 11.375 33.070312 10.203125 33.121094 9.023438 33.046875 C 8.03125 32.476562 7.8125 31.679688 8.359375 30.664062 C 8.957031 30.179688 9.542969 29.6875 10.117188 29.179688 C 9.136719 28.820312 8.226562 28.339844 7.382812 27.734375 C 7.203125 27.671875 7.023438 27.617188 6.835938 27.578125 C 5.0625 27.503906 3.292969 27.425781 1.523438 27.34375 C 0.585938 26.773438 0.339844 25.980469 0.78125 24.960938 C 0.921875 24.742188 1.089844 24.546875 1.289062 24.375 C 2.011719 24.148438 2.738281 23.9375 3.476562 23.75 C 3.738281 23.621094 3.996094 23.488281 4.257812 23.359375 C 4.785156 22.832031 5.359375 22.363281 5.976562 21.953125 C 7.058594 21.449219 8.179688 21.046875 9.335938 20.742188 C 9.425781 19.050781 9.488281 17.355469 9.53125 15.664062 C 8.992188 15.207031 8.433594 14.777344 7.851562 14.375 C 5.964844 14.484375 4.117188 14.277344 2.304688 13.75 C 2.269531 13.71875 2.242188 13.679688 2.226562 13.632812 C 2.355469 13.269531 2.488281 12.902344 2.617188 12.539062 C 2.65625 12.511719 2.695312 12.488281 2.734375 12.460938 C 4.042969 12.890625 5.382812 13.085938 6.757812 13.046875 C 5.976562 12.003906 5.375 10.859375 4.960938 9.609375 C 4.992188 9.535156 5.042969 9.484375 5.117188 9.453125 C 5.457031 9.34375 5.796875 9.226562 6.132812 9.101562 C 6.75 10.667969 7.609375 12.085938 8.710938 13.359375 C 9.03125 13.550781 9.332031 13.773438 9.609375 14.023438 C 9.753906 12.4375 9.859375 10.851562 9.921875 9.257812 C 9.972656 8.933594 10.117188 8.660156 10.351562 8.4375 C 11.023438 8 11.75 7.6875 12.539062 7.5 C 14.175781 7.167969 15.816406 6.945312 17.460938 6.835938 Z M 19.726562 8.085938 C 22.335938 8.0625 24.914062 8.335938 27.460938 8.90625 C 27.824219 8.996094 28.164062 9.140625 28.476562 9.335938 C 27.867188 9.664062 27.214844 9.886719 26.523438 10 C 23.882812 10.476562 21.226562 10.632812 18.554688 10.46875 C 18.746094 10.152344 18.757812 9.828125 18.59375 9.492188 C 18.40625 9.375 18.195312 9.324219 17.96875 9.335938 C 16.675781 9.535156 15.386719 9.757812 14.101562 10 C 13.15625 10.023438 12.269531 9.800781 11.445312 9.335938 C 11.757812 9.140625 12.097656 8.996094 12.460938 8.90625 C 14.863281 8.363281 17.285156 8.089844 19.726562 8.085938 Z M 11.210938 10.742188 C 11.867188 10.996094 12.542969 11.179688 13.242188 11.289062 C 13.605469 12.699219 14.019531 14.09375 14.492188 15.46875 C 14.828125 15.632812 15.152344 15.621094 15.46875 15.429688 C 16.128906 14.226562 16.820312 13.039062 17.539062 11.875 C 18.738281 11.835938 19.933594 11.824219 21.132812 11.835938 C 21.132812 14.128906 21.132812 16.417969 21.132812 18.710938 C 21.574219 18.710938 22.019531 18.710938 22.460938 18.710938 C 22.449219 16.417969 22.460938 14.128906 22.5 11.835938 C 22.871094 11.761719 23.246094 11.734375 23.632812 11.757812 C 23.632812 12.824219 23.632812 13.894531 23.632812 14.960938 C 24.074219 14.960938 24.519531 14.960938 24.960938 14.960938 C 24.960938 13.839844 24.960938 12.722656 24.960938 11.601562 C 26.269531 11.449219 27.542969 11.164062 28.789062 10.742188 C 28.929688 14.050781 29.097656 17.359375 29.296875 20.664062 C 29.332031 20.800781 29.386719 20.929688 29.453125 21.054688 C 31.195312 21.546875 32.457031 22.601562 33.242188 24.21875 C 33.367188 24.285156 33.496094 24.339844 33.632812 24.375 C 35.039062 24.542969 36.445312 24.726562 37.851562 24.921875 C 38 25.0625 38.039062 25.230469 37.96875 25.429688 C 36.210938 25.527344 34.503906 25.894531 32.851562 26.523438 C 32.339844 25.699219 31.742188 24.929688 31.054688 24.21875 C 30.011719 23.570312 29.0625 22.804688 28.203125 21.914062 C 27.707031 21.132812 27.214844 20.351562 26.71875 19.570312 C 26.359375 19.808594 26.007812 20.054688 25.664062 20.3125 C 26.160156 21.296875 26.746094 22.21875 27.421875 23.085938 C 28.164062 23.828125 28.984375 24.464844 29.882812 25 C 30.792969 25.820312 31.484375 26.796875 31.953125 27.929688 C 32.894531 28.519531 33.84375 29.089844 34.804688 29.648438 C 34.875 29.710938 34.898438 29.789062 34.882812 29.882812 C 34.671875 29.894531 34.464844 29.882812 34.257812 29.84375 C 31.589844 28.707031 28.800781 28.105469 25.898438 28.046875 C 25.476562 27.5625 25.203125 27.003906 25.078125 26.367188 C 24.980469 25.484375 24.941406 24.597656 24.960938 23.710938 C 24.542969 23.710938 24.128906 23.710938 23.710938 23.710938 C 23.699219 24.675781 23.710938 25.636719 23.75 26.601562 C 23.96875 27.601562 24.425781 28.472656 25.117188 29.21875 C 25.898438 29.582031 26.65625 29.988281 27.382812 30.429688 C 27.355469 30.507812 27.304688 30.558594 27.226562 30.585938 C 25.316406 30.515625 23.621094 29.875 22.148438 28.671875 C 22.066406 28.613281 22.011719 28.535156 21.992188 28.4375 C 22.195312 27.734375 22.339844 27.015625 22.421875 26.289062 C 22.460938 25.011719 22.472656 23.738281 22.460938 22.460938 C 22.042969 22.460938 21.628906 22.460938 21.210938 22.460938 C 21.222656 23.6875 21.183594 24.910156 21.09375 26.132812 C 21.015625 26.898438 20.847656 27.640625 20.585938 28.359375 C 18.015625 30.257812 15.125 31.351562 11.914062 31.640625 C 11.140625 31.710938 10.375 31.773438 9.609375 31.835938 C 9.460938 31.773438 9.410156 31.667969 9.453125 31.523438 C 10.394531 30.710938 11.359375 29.929688 12.34375 29.179688 C 12.808594 27.464844 13.839844 26.226562 15.429688 25.46875 C 15.480469 25.410156 15.519531 25.34375 15.546875 25.273438 C 15.585938 22.878906 15.597656 20.480469 15.585938 18.085938 C 15.167969 18.085938 14.753906 18.085938 14.335938 18.085938 C 14.363281 20.25 14.335938 22.410156 14.257812 24.570312 C 12.875 25.328125 11.910156 26.449219 11.367188 27.929688 C 10.882812 27.964844 10.414062 27.875 9.960938 27.65625 C 9.363281 27.355469 8.789062 27.019531 8.242188 26.640625 C 7.863281 26.480469 7.472656 26.347656 7.070312 26.25 C 5.457031 26.222656 3.839844 26.199219 2.226562 26.171875 C 1.925781 26.050781 1.847656 25.84375 1.992188 25.546875 C 2.972656 25.359375 3.910156 25.046875 4.804688 24.609375 C 5.421875 24.199219 5.996094 23.730469 6.523438 23.203125 C 6.785156 23.074219 7.042969 22.941406 7.304688 22.8125 C 8.378906 22.480469 9.433594 22.101562 10.46875 21.679688 C 10.542969 21.53125 10.597656 21.375 10.625 21.210938 C 10.796875 17.714844 10.992188 14.226562 11.210938 10.742188 Z M 15.976562 10.976562 C 16.136719 10.964844 16.292969 10.976562 16.445312 11.015625 C 16.027344 11.738281 15.597656 12.453125 15.15625 13.164062 C 14.949219 12.546875 14.792969 11.921875 14.6875 11.289062 C 15.125 11.1875 15.554688 11.085938 15.976562 10.976562 Z M 15.976562 10.976562 "/>
</g>
</defs>
<g id="surface1">
<use xlink:href="#surface5" mask="url(#mask0)"/>
</g>
</svg>
