<?xml version="1.0" encoding="UTF-8"?>
<svg xmlns="http://www.w3.org/2000/svg" xmlns:xlink="http://www.w3.org/1999/xlink" width="40px" height="px" viewBox="0 0 40 40" version="1.1">
<defs>
<filter id="alpha" filterUnits="objectBoundingBox" x="0%" y="0%" width="100%" height="100%">
  <feColorMatrix type="matrix" in="SourceGraphic" values="0 0 0 0 1 0 0 0 0 1 0 0 0 0 1 0 0 0 1 0"/>
</filter>
<mask id="mask0">
  <g filter="url(#alpha)">
<rect x="0" y="0" width="40" height="40" style="fill:rgb(0%,0%,0%);fill-opacity:0.847059;stroke:none;"/>
  </g>
</mask>
<clipPath id="clip1">
  <rect x="0" y="0" width="40" height="40"/>
</clipPath>
<g id="surface5" clip-path="url(#clip1)">
<path style=" stroke:none;fill-rule:evenodd;fill:rgb(41.176471%,70.588235%,17.647059%);fill-opacity:1;" d="M 21.601562 -0.0390625 C 22.199219 -0.0390625 22.800781 -0.0390625 23.398438 -0.0390625 C 24.1875 0.105469 24.8125 0.507812 25.273438 1.164062 C 26.035156 1.117188 26.789062 1.195312 27.539062 1.394531 C 27.765625 1.5 27.988281 1.617188 28.203125 1.746094 C 28.261719 1.894531 28.25 2.035156 28.164062 2.171875 C 27.511719 1.933594 26.835938 1.765625 26.132812 1.667969 C 25.800781 1.703125 25.476562 1.757812 25.15625 1.820312 C 24.875 1.460938 24.550781 1.136719 24.179688 0.851562 C 23.023438 0.277344 21.875 0.304688 20.742188 0.929688 C 20.4375 1.207031 20.164062 1.503906 19.921875 1.820312 C 17.941406 1.355469 16.640625 2.082031 16.015625 3.992188 C 15.910156 4.503906 15.832031 5.023438 15.78125 5.542969 C 15.355469 5.949219 15.082031 6.441406 14.960938 7.015625 C 15.5625 6.941406 16.148438 6.8125 16.71875 6.628906 C 16.875 5.984375 17.019531 5.335938 17.148438 4.691406 C 17.390625 4.648438 17.574219 4.726562 17.695312 4.921875 C 17.566406 5.4375 17.433594 5.957031 17.304688 6.472656 C 17.882812 6.515625 18.453125 6.464844 19.023438 6.316406 C 19.285156 6.367188 19.378906 6.523438 19.296875 6.78125 C 18.578125 6.921875 17.859375 7.074219 17.148438 7.25 C 16.894531 7.988281 16.636719 8.726562 16.367188 9.457031 C 16.839844 9.976562 16.902344 10.53125 16.5625 11.125 C 16.066406 11.511719 15.574219 11.898438 15.078125 12.285156 C 14.9375 13.15625 15.144531 13.929688 15.703125 14.613281 C 15.886719 14.78125 16.054688 14.960938 16.210938 15.15625 C 16.75 15.597656 17.308594 16.011719 17.890625 16.394531 C 18.253906 17.917969 19.214844 18.746094 20.78125 18.875 C 21.265625 18.8125 21.75 18.738281 22.226562 18.644531 C 22.214844 16.910156 22.226562 15.179688 22.265625 13.449219 C 22.402344 13.285156 22.558594 13.261719 22.734375 13.371094 C 22.773438 15.128906 22.785156 16.886719 22.773438 18.644531 C 23.691406 18.941406 24.605469 18.929688 25.507812 18.605469 C 26.394531 18.128906 26.925781 17.390625 27.109375 16.394531 C 27.980469 15.917969 28.738281 15.296875 29.375 14.535156 C 29.925781 13.835938 30.105469 13.0625 29.921875 12.210938 C 29.734375 11.660156 29.488281 11.140625 29.179688 10.660156 C 29.582031 10.09375 29.882812 9.472656 30.078125 8.796875 C 30.390625 7.53125 30.105469 6.421875 29.21875 5.464844 C 29.292969 4.601562 29.113281 3.800781 28.671875 3.0625 C 28.59375 2.753906 28.710938 2.613281 29.023438 2.636719 C 29.394531 3.070312 29.617188 3.574219 29.6875 4.148438 C 29.714844 4.507812 29.738281 4.871094 29.765625 5.234375 C 30.851562 6.640625 31.035156 8.164062 30.3125 9.804688 C 30.171875 10.121094 30.003906 10.417969 29.804688 10.699219 C 30.992188 12.632812 30.707031 14.335938 28.945312 15.8125 C 28.496094 16.144531 28.039062 16.46875 27.578125 16.78125 C 27.121094 18.515625 25.988281 19.394531 24.179688 19.417969 C 23.734375 19.367188 23.289062 19.289062 22.851562 19.1875 C 22.761719 22.363281 22.746094 25.542969 22.8125 28.722656 C 23.203125 29.085938 23.476562 29.523438 23.632812 30.039062 C 26.09375 30.167969 27.265625 31.460938 27.148438 33.914062 C 27.382812 33.914062 27.617188 33.914062 27.851562 33.914062 C 27.96875 32.539062 28.699219 31.714844 30.039062 31.433594 C 30.039062 30.53125 30.039062 29.625 30.039062 28.722656 C 28.828125 28.980469 28.007812 28.539062 27.578125 27.402344 C 26.945312 27.03125 26.476562 26.515625 26.171875 25.851562 C 26.058594 25.292969 26.152344 24.777344 26.445312 24.300781 C 25.820312 23.355469 25.832031 22.421875 26.484375 21.511719 C 26.566406 20.058594 27.335938 19.324219 28.789062 19.300781 C 29.375 18.613281 30.105469 18.40625 30.976562 18.683594 C 31.285156 18.832031 31.542969 19.039062 31.757812 19.300781 C 33.214844 19.328125 33.984375 20.0625 34.0625 21.511719 C 34.722656 22.410156 34.734375 23.328125 34.101562 24.261719 C 34.597656 24.964844 34.609375 25.675781 34.140625 26.394531 C 33.796875 26.789062 33.40625 27.125 32.96875 27.402344 C 32.5625 28.515625 31.765625 28.957031 30.585938 28.722656 C 30.585938 29.625 30.585938 30.53125 30.585938 31.433594 C 30.6875 31.449219 30.78125 31.421875 30.859375 31.355469 C 31.359375 29.757812 32.386719 29.28125 33.945312 29.921875 C 34.34375 30.222656 34.632812 30.613281 34.804688 31.085938 C 35.175781 31.132812 35.539062 31.210938 35.898438 31.316406 C 36.125 31.5625 36.070312 31.730469 35.742188 31.820312 C 35.304688 31.714844 34.863281 31.652344 34.414062 31.628906 C 34.253906 31.152344 33.992188 30.738281 33.632812 30.386719 C 32.816406 29.996094 32.152344 30.164062 31.640625 30.890625 C 31.488281 31.277344 31.347656 31.664062 31.210938 32.054688 C 29.675781 31.707031 28.738281 32.300781 28.398438 33.835938 C 31.210938 33.914062 34.023438 33.941406 36.835938 33.914062 C 36.835938 33.328125 36.703125 32.773438 36.445312 32.25 C 36.535156 31.9375 36.707031 31.898438 36.953125 32.132812 C 37.269531 32.683594 37.414062 33.277344 37.382812 33.914062 C 38.246094 33.894531 39.105469 33.921875 39.960938 33.992188 C 39.960938 34.148438 39.960938 34.300781 39.960938 34.457031 C 26.628906 34.457031 13.292969 34.457031 -0.0390625 34.457031 C -0.0390625 34.300781 -0.0390625 34.148438 -0.0390625 33.992188 C 1.261719 33.941406 2.5625 33.890625 3.867188 33.835938 C 3.769531 33.585938 3.691406 33.324219 3.632812 33.0625 C 4.136719 30.539062 4.660156 28.019531 5.195312 25.503906 C 5.074219 24.855469 5.046875 24.210938 5.117188 23.566406 C 5.289062 23.5 5.433594 23.539062 5.546875 23.683594 C 5.601562 24.304688 5.667969 24.925781 5.742188 25.542969 C 5.234375 28.050781 4.710938 30.558594 4.179688 33.0625 C 4.296875 33.714844 4.6875 33.988281 5.351562 33.875 C 5.539062 33.746094 5.683594 33.578125 5.78125 33.371094 C 6.378906 31.277344 6.980469 29.1875 7.578125 27.09375 C 7.574219 26.472656 7.546875 25.855469 7.5 25.234375 C 6.71875 23.476562 5.9375 21.71875 5.15625 19.960938 C 5.207031 20.683594 5.269531 21.40625 5.351562 22.132812 C 5.363281 22.570312 5.195312 22.675781 4.84375 22.441406 C 4.707031 21.226562 4.578125 20.011719 4.453125 18.796875 C 4.460938 17.585938 4.460938 16.371094 4.453125 15.15625 C 4.339844 13.605469 4.222656 12.054688 4.101562 10.503906 C 4.082031 9.71875 4.277344 8.996094 4.6875 8.332031 C 4.859375 8.136719 5.054688 7.96875 5.273438 7.828125 C 4.582031 7.367188 4.21875 6.71875 4.179688 5.890625 C 4.460938 4.160156 5.476562 3.4375 7.226562 3.722656 C 7.539062 3.824219 7.8125 3.992188 8.046875 4.226562 C 8.34375 4.058594 8.640625 3.902344 8.945312 3.757812 C 9.152344 3.855469 9.21875 4.011719 9.140625 4.226562 C 8.914062 4.394531 8.664062 4.539062 8.398438 4.652344 C 8.972656 5.644531 8.894531 6.589844 8.164062 7.480469 C 7.960938 7.695312 7.726562 7.863281 7.460938 7.984375 C 7.988281 8.351562 8.472656 8.78125 8.90625 9.261719 C 10.007812 8.542969 11.113281 7.832031 12.226562 7.132812 C 12.71875 6.949219 13.171875 7.015625 13.59375 7.324219 C 13.839844 7.257812 14.085938 7.207031 14.335938 7.171875 C 14.445312 6.460938 14.746094 5.839844 15.234375 5.308594 C 15.242188 3.910156 15.75 2.734375 16.757812 1.78125 C 17.136719 1.519531 17.554688 1.335938 18.007812 1.242188 C 18.582031 1.214844 19.152344 1.1875 19.726562 1.164062 C 20.214844 0.546875 20.839844 0.144531 21.601562 -0.0390625 Z M 6.210938 4.148438 C 6.691406 4.113281 7.136719 4.230469 7.539062 4.496094 C 6.628906 4.972656 5.714844 5.453125 4.804688 5.929688 C 4.839844 5.011719 5.308594 4.417969 6.210938 4.148438 Z M 7.851562 4.921875 C 8.453125 5.835938 8.324219 6.648438 7.460938 7.363281 C 6.347656 7.878906 5.488281 7.605469 4.882812 6.550781 C 5.878906 6.003906 6.867188 5.464844 7.851562 4.921875 Z M 16.132812 7.324219 C 16.265625 7.3125 16.394531 7.324219 16.523438 7.363281 C 16.296875 8 16.0625 8.632812 15.820312 9.261719 C 15.59375 9.195312 15.371094 9.21875 15.15625 9.339844 C 14.878906 8.800781 14.785156 8.230469 14.882812 7.636719 C 15.3125 7.539062 15.726562 7.4375 16.132812 7.324219 Z M 12.617188 7.558594 C 13.289062 7.617188 13.484375 7.953125 13.203125 8.566406 C 12.199219 9.246094 11.210938 9.941406 10.234375 10.660156 C 9.910156 10.335938 9.582031 10.011719 9.257812 9.691406 C 10.382812 8.976562 11.503906 8.265625 12.617188 7.558594 Z M 14.179688 7.714844 C 14.25 8.359375 14.40625 8.992188 14.648438 9.613281 C 13.535156 10.363281 12.429688 11.128906 11.328125 11.898438 C 11.109375 11.605469 10.863281 11.332031 10.585938 11.085938 C 11.636719 10.378906 12.664062 9.640625 13.671875 8.875 C 13.84375 8.535156 13.910156 8.175781 13.867188 7.789062 C 13.992188 7.8125 14.097656 7.785156 14.179688 7.714844 Z M 6.054688 8.179688 C 6.632812 8.21875 7.15625 8.414062 7.617188 8.757812 C 8.761719 10.023438 9.933594 11.265625 11.132812 12.480469 C 11.238281 12.53125 11.339844 12.53125 11.445312 12.480469 C 11.671875 12.347656 11.894531 12.207031 12.109375 12.054688 C 12.277344 12.453125 12.449219 12.855469 12.617188 13.253906 C 12.195312 13.597656 11.753906 13.90625 11.289062 14.1875 C 11.105469 14.238281 10.925781 14.238281 10.742188 14.1875 C 9.472656 13.210938 8.277344 12.152344 7.148438 11.007812 C 6.765625 10.820312 6.597656 10.933594 6.640625 11.355469 C 7.160156 11.78125 7.640625 12.246094 8.085938 12.75 C 7.695312 14.328125 6.707031 15.308594 5.117188 15.699219 C 4.875 13.792969 4.730469 11.882812 4.6875 9.960938 C 4.726562 9.375 4.949219 8.871094 5.351562 8.449219 C 5.589844 8.347656 5.824219 8.257812 6.054688 8.179688 Z M 15.507812 9.730469 C 16.183594 9.851562 16.378906 10.214844 16.09375 10.8125 C 15.089844 11.5625 14.0625 12.261719 13.007812 12.90625 C 12.894531 12.484375 12.777344 12.070312 12.65625 11.667969 C 13.617188 11.027344 14.570312 10.382812 15.507812 9.730469 Z M 14.414062 12.675781 C 14.503906 13.902344 15.027344 14.921875 15.976562 15.738281 C 16.414062 16.121094 16.898438 16.441406 17.421875 16.707031 C 17.886719 18.429688 19.019531 19.332031 20.820312 19.417969 C 21.265625 19.367188 21.710938 19.289062 22.148438 19.1875 C 22.253906 21.460938 22.253906 23.734375 22.148438 26.007812 C 21.167969 25.632812 20.292969 25.089844 19.53125 24.378906 C 19.726562 23.878906 19.910156 23.359375 20.078125 22.828125 C 20.359375 21.742188 19.984375 20.992188 18.945312 20.582031 C 18.492188 19.230469 17.65625 18.933594 16.445312 19.691406 C 15.316406 19.511719 14.691406 19.992188 14.570312 21.125 C 14.609375 21.53125 14.6875 21.933594 14.804688 22.324219 C 14.339844 23.222656 14.523438 23.949219 15.351562 24.496094 C 15.683594 24.613281 16.023438 24.71875 16.367188 24.804688 C 16.816406 25.277344 17.363281 25.433594 18.007812 25.269531 C 18.402344 25.164062 18.765625 24.996094 19.101562 24.765625 C 19.988281 25.621094 21.03125 26.214844 22.226562 26.550781 C 22.238281 27.144531 22.226562 27.738281 22.1875 28.332031 C 20.730469 27.769531 19.609375 28.160156 18.828125 29.496094 C 18.644531 29.835938 18.527344 30.199219 18.476562 30.582031 C 16.046875 30.382812 14.691406 31.492188 14.414062 33.914062 C 13.085938 33.941406 11.757812 33.914062 10.429688 33.835938 C 10.535156 33.589844 10.601562 33.332031 10.625 33.0625 C 10.777344 30.359375 10.945312 27.660156 11.132812 24.960938 C 10.597656 22.621094 10.066406 20.285156 9.53125 17.945312 C 9.480469 16.601562 9.480469 15.257812 9.53125 13.914062 C 9.808594 14.1875 10.109375 14.433594 10.429688 14.652344 C 10.949219 14.832031 11.441406 14.78125 11.914062 14.496094 C 12.738281 13.871094 13.574219 13.261719 14.414062 12.675781 Z M 8.554688 13.140625 C 8.769531 13.273438 8.925781 13.453125 9.023438 13.683594 C 8.933594 15.128906 8.921875 16.574219 8.984375 18.023438 C 9.511719 20.351562 10.046875 22.675781 10.585938 25 C 10.398438 27.683594 10.226562 30.371094 10.078125 33.0625 C 9.984375 33.8125 9.578125 34.058594 8.867188 33.796875 C 8.636719 33.636719 8.492188 33.414062 8.4375 33.140625 C 8.308594 30.453125 8.175781 27.765625 8.046875 25.078125 C 7.03125 22.804688 6.015625 20.53125 5 18.253906 C 4.949219 17.578125 4.988281 16.90625 5.117188 16.242188 C 6.882812 15.882812 8.03125 14.847656 8.554688 13.140625 Z M 29.960938 19.109375 C 30.320312 19.078125 30.65625 19.144531 30.976562 19.300781 C 31.179688 19.496094 31.359375 19.703125 31.523438 19.921875 C 32.835938 19.75 33.5 20.332031 33.515625 21.667969 C 34 22.183594 34.132812 22.777344 33.90625 23.449219 C 33.773438 23.726562 33.628906 24 33.476562 24.261719 C 34.152344 25.183594 34.019531 25.984375 33.085938 26.667969 C 32.898438 26.792969 32.703125 26.910156 32.5 27.015625 C 32.25 28.023438 31.613281 28.410156 30.585938 28.179688 C 30.597656 27.429688 30.585938 26.679688 30.546875 25.929688 C 30.410156 25.765625 30.253906 25.742188 30.078125 25.851562 C 30.039062 26.628906 30.027344 27.402344 30.039062 28.179688 C 28.988281 28.4375 28.324219 28.050781 28.046875 27.015625 C 27.640625 26.789062 27.273438 26.503906 26.953125 26.164062 C 26.570312 25.515625 26.609375 24.894531 27.070312 24.300781 C 26.789062 23.863281 26.609375 23.386719 26.523438 22.867188 C 26.578125 22.441406 26.746094 22.066406 27.03125 21.746094 C 27.039062 21.246094 27.171875 20.78125 27.421875 20.347656 C 27.855469 19.925781 28.363281 19.796875 28.945312 19.960938 C 29.160156 19.753906 29.371094 19.535156 29.570312 19.300781 C 29.710938 19.242188 29.84375 19.179688 29.960938 19.109375 Z M 17.304688 19.804688 C 17.640625 19.75 17.914062 19.855469 18.125 20.117188 C 18.296875 20.410156 18.429688 20.71875 18.515625 21.046875 C 19.171875 21.167969 19.546875 21.554688 19.648438 22.210938 C 19.546875 22.820312 19.339844 23.386719 19.023438 23.914062 C 18.488281 23.449219 17.992188 22.945312 17.539062 22.402344 C 17.113281 22.359375 16.996094 22.527344 17.1875 22.90625 C 17.667969 23.386719 18.152344 23.863281 18.632812 24.339844 C 18.203125 24.722656 17.710938 24.851562 17.148438 24.730469 C 16.964844 24.652344 16.835938 24.523438 16.757812 24.339844 C 16.183594 24.269531 15.675781 24.050781 15.234375 23.683594 C 15.164062 23.5625 15.125 23.433594 15.117188 23.292969 C 15.210938 22.992188 15.3125 22.695312 15.429688 22.402344 C 15.285156 21.988281 15.179688 21.558594 15.117188 21.125 C 15.152344 20.492188 15.492188 20.183594 16.132812 20.195312 C 16.3125 20.261719 16.496094 20.277344 16.679688 20.234375 C 16.878906 20.070312 17.089844 19.929688 17.304688 19.804688 Z M 20.585938 28.644531 C 22.050781 28.53125 22.9375 29.191406 23.242188 30.621094 C 25.542969 30.539062 26.664062 31.636719 26.601562 33.914062 C 22.722656 33.914062 18.839844 33.914062 14.960938 33.914062 C 15.277344 31.640625 16.554688 30.75 18.789062 31.242188 C 18.957031 30.609375 19.207031 30 19.53125 29.417969 C 19.8125 29.050781 20.164062 28.789062 20.585938 28.644531 Z M 7.617188 28.875 C 7.75 30.28125 7.839844 31.703125 7.890625 33.140625 C 7.90625 33.414062 7.996094 33.660156 8.164062 33.875 C 7.488281 33.925781 6.808594 33.925781 6.132812 33.875 C 6.714844 32.238281 7.207031 30.570312 7.617188 28.875 Z M 7.617188 28.875 "/>
</g>
<mask id="mask1">
  <g filter="url(#alpha)">
<rect x="0" y="0" width="40" height="40" style="fill:rgb(0%,0%,0%);fill-opacity:0.772549;stroke:none;"/>
  </g>
</mask>
<clipPath id="clip2">
  <rect x="0" y="0" width="40" height="40"/>
</clipPath>
<g id="surface8" clip-path="url(#clip2)">
<path style=" stroke:none;fill-rule:evenodd;fill:rgb(41.176471%,70.588235%,17.647059%);fill-opacity:1;" d="M 21.445312 2.441406 C 21.71875 2.492188 21.808594 2.648438 21.71875 2.90625 C 21.394531 3.21875 21.015625 3.386719 20.585938 3.410156 C 20.5 3.277344 20.488281 3.136719 20.546875 2.984375 C 20.847656 2.789062 21.148438 2.609375 21.445312 2.441406 Z M 21.445312 2.441406 "/>
</g>
<mask id="mask2">
  <g filter="url(#alpha)">
<rect x="0" y="0" width="40" height="40" style="fill:rgb(0%,0%,0%);fill-opacity:0.788235;stroke:none;"/>
  </g>
</mask>
<clipPath id="clip3">
  <rect x="0" y="0" width="40" height="40"/>
</clipPath>
<g id="surface11" clip-path="url(#clip3)">
<path style=" stroke:none;fill-rule:evenodd;fill:rgb(41.176471%,70.588235%,17.647059%);fill-opacity:1;" d="M 24.648438 4.921875 C 24.8125 4.898438 24.96875 4.925781 25.117188 5 C 25.207031 5.234375 25.300781 5.464844 25.390625 5.699219 C 25.503906 6.113281 25.359375 6.246094 24.960938 6.085938 C 24.734375 5.714844 24.628906 5.328125 24.648438 4.921875 Z M 24.648438 4.921875 "/>
</g>
<mask id="mask3">
  <g filter="url(#alpha)">
<rect x="0" y="0" width="40" height="40" style="fill:rgb(0%,0%,0%);fill-opacity:0.796078;stroke:none;"/>
  </g>
</mask>
<clipPath id="clip4">
  <rect x="0" y="0" width="40" height="40"/>
</clipPath>
<g id="surface14" clip-path="url(#clip4)">
<path style=" stroke:none;fill-rule:evenodd;fill:rgb(41.176471%,70.588235%,17.647059%);fill-opacity:1;" d="M 21.523438 6.164062 C 21.742188 6.128906 21.898438 6.207031 21.992188 6.394531 C 21.84375 6.765625 21.675781 7.128906 21.484375 7.480469 C 21.242188 7.609375 21.074219 7.546875 20.976562 7.285156 C 21.148438 6.902344 21.332031 6.53125 21.523438 6.164062 Z M 21.523438 6.164062 "/>
</g>
<mask id="mask4">
  <g filter="url(#alpha)">
<rect x="0" y="0" width="40" height="40" style="fill:rgb(0%,0%,0%);fill-opacity:0.796078;stroke:none;"/>
  </g>
</mask>
<clipPath id="clip5">
  <rect x="0" y="0" width="40" height="40"/>
</clipPath>
<g id="surface17" clip-path="url(#clip5)">
<path style=" stroke:none;fill-rule:evenodd;fill:rgb(41.176471%,70.588235%,17.647059%);fill-opacity:1;" d="M 27.773438 8.023438 C 28.132812 7.9375 28.277344 8.066406 28.203125 8.410156 C 27.988281 8.613281 27.769531 8.808594 27.539062 8.992188 C 27.226562 9.070312 27.082031 8.953125 27.109375 8.644531 C 27.324219 8.417969 27.542969 8.210938 27.773438 8.023438 Z M 27.773438 8.023438 "/>
</g>
<mask id="mask5">
  <g filter="url(#alpha)">
<rect x="0" y="0" width="40" height="40" style="fill:rgb(0%,0%,0%);fill-opacity:0.792157;stroke:none;"/>
  </g>
</mask>
<clipPath id="clip6">
  <rect x="0" y="0" width="40" height="40"/>
</clipPath>
<g id="surface20" clip-path="url(#clip6)">
<path style=" stroke:none;fill-rule:evenodd;fill:rgb(41.176471%,70.588235%,17.647059%);fill-opacity:1;" d="M 23.632812 9.652344 C 24.089844 9.703125 24.464844 9.910156 24.765625 10.269531 C 24.839844 10.625 24.695312 10.742188 24.335938 10.621094 C 24.039062 10.421875 23.777344 10.191406 23.554688 9.921875 C 23.59375 9.835938 23.617188 9.742188 23.632812 9.652344 Z M 23.632812 9.652344 "/>
</g>
<mask id="mask6">
  <g filter="url(#alpha)">
<rect x="0" y="0" width="40" height="40" style="fill:rgb(0%,0%,0%);fill-opacity:0.768627;stroke:none;"/>
  </g>
</mask>
<clipPath id="clip7">
  <rect x="0" y="0" width="40" height="40"/>
</clipPath>
<g id="surface23" clip-path="url(#clip7)">
<path style=" stroke:none;fill-rule:evenodd;fill:rgb(41.176471%,70.588235%,17.647059%);fill-opacity:1;" d="M 19.960938 9.730469 C 20.320312 9.644531 20.464844 9.773438 20.390625 10.117188 C 20.105469 10.457031 19.753906 10.648438 19.335938 10.699219 C 19.25 10.5625 19.238281 10.421875 19.296875 10.269531 C 19.53125 10.101562 19.753906 9.921875 19.960938 9.730469 Z M 19.960938 9.730469 "/>
</g>
<mask id="mask7">
  <g filter="url(#alpha)">
<rect x="0" y="0" width="40" height="40" style="fill:rgb(0%,0%,0%);fill-opacity:0.764706;stroke:none;"/>
  </g>
</mask>
<clipPath id="clip8">
  <rect x="0" y="0" width="40" height="40"/>
</clipPath>
<g id="surface26" clip-path="url(#clip8)">
<path style=" stroke:none;fill-rule:evenodd;fill:rgb(41.176471%,70.588235%,17.647059%);fill-opacity:1;" d="M 26.054688 13.292969 C 26.476562 13.222656 26.605469 13.375 26.445312 13.757812 C 26.191406 14.054688 25.878906 14.195312 25.507812 14.1875 C 25.425781 14.078125 25.414062 13.960938 25.46875 13.835938 C 25.664062 13.644531 25.859375 13.464844 26.054688 13.292969 Z M 26.054688 13.292969 "/>
</g>
<mask id="mask8">
  <g filter="url(#alpha)">
<rect x="0" y="0" width="40" height="40" style="fill:rgb(0%,0%,0%);fill-opacity:0.780392;stroke:none;"/>
  </g>
</mask>
<clipPath id="clip9">
  <rect x="0" y="0" width="40" height="40"/>
</clipPath>
<g id="surface29" clip-path="url(#clip9)">
<path style=" stroke:none;fill-rule:evenodd;fill:rgb(41.176471%,70.588235%,17.647059%);fill-opacity:1;" d="M 18.242188 13.527344 C 18.65625 13.609375 19.007812 13.816406 19.296875 14.148438 C 19.382812 14.472656 19.265625 14.613281 18.945312 14.574219 C 18.699219 14.394531 18.464844 14.199219 18.242188 13.992188 C 18.148438 13.835938 18.148438 13.679688 18.242188 13.527344 Z M 18.242188 13.527344 "/>
</g>
<mask id="mask9">
  <g filter="url(#alpha)">
<rect x="0" y="0" width="40" height="40" style="fill:rgb(0%,0%,0%);fill-opacity:0.776471;stroke:none;"/>
  </g>
</mask>
<clipPath id="clip10">
  <rect x="0" y="0" width="40" height="40"/>
</clipPath>
<g id="surface32" clip-path="url(#clip10)">
<path style=" stroke:none;fill-rule:evenodd;fill:rgb(41.176471%,70.588235%,17.647059%);fill-opacity:1;" d="M 20.117188 16.394531 C 20.25 16.382812 20.378906 16.394531 20.507812 16.433594 C 20.550781 16.492188 20.578125 16.554688 20.585938 16.628906 C 20.488281 16.84375 20.371094 17.050781 20.234375 17.25 C 19.980469 17.480469 19.785156 17.441406 19.648438 17.132812 C 19.789062 16.875 19.945312 16.628906 20.117188 16.394531 Z M 20.117188 16.394531 "/>
</g>
<mask id="mask10">
  <g filter="url(#alpha)">
<rect x="0" y="0" width="40" height="40" style="fill:rgb(0%,0%,0%);fill-opacity:0.796078;stroke:none;"/>
  </g>
</mask>
<clipPath id="clip11">
  <rect x="0" y="0" width="40" height="40"/>
</clipPath>
<g id="surface35" clip-path="url(#clip11)">
<path style=" stroke:none;fill-rule:evenodd;fill:rgb(41.176471%,70.588235%,17.647059%);fill-opacity:1;" d="M 24.179688 16.394531 C 24.3125 16.382812 24.441406 16.394531 24.570312 16.433594 C 24.769531 16.628906 24.898438 16.863281 24.960938 17.132812 C 24.816406 17.476562 24.621094 17.492188 24.375 17.171875 C 24.140625 16.945312 24.078125 16.6875 24.179688 16.394531 Z M 24.179688 16.394531 "/>
</g>
<mask id="mask11">
  <g filter="url(#alpha)">
<rect x="0" y="0" width="40" height="40" style="fill:rgb(0%,0%,0%);fill-opacity:0.796078;stroke:none;"/>
  </g>
</mask>
<clipPath id="clip12">
  <rect x="0" y="0" width="40" height="40"/>
</clipPath>
<g id="surface38" clip-path="url(#clip12)">
<path style=" stroke:none;fill-rule:evenodd;fill:rgb(41.176471%,70.588235%,17.647059%);fill-opacity:1;" d="M 16.992188 20.890625 C 17.285156 20.871094 17.570312 20.898438 17.851562 20.96875 C 17.941406 21.089844 17.953125 21.21875 17.890625 21.355469 C 17.570312 21.445312 17.246094 21.457031 16.914062 21.394531 C 16.808594 21.207031 16.835938 21.039062 16.992188 20.890625 Z M 16.992188 20.890625 "/>
</g>
<mask id="mask12">
  <g filter="url(#alpha)">
<rect x="0" y="0" width="40" height="40" style="fill:rgb(0%,0%,0%);fill-opacity:0.764706;stroke:none;"/>
  </g>
</mask>
<clipPath id="clip13">
  <rect x="0" y="0" width="40" height="40"/>
</clipPath>
<g id="surface41" clip-path="url(#clip13)">
<path style=" stroke:none;fill-rule:evenodd;fill:rgb(41.176471%,70.588235%,17.647059%);fill-opacity:1;" d="M 29.726562 21.046875 C 30.09375 21.0625 30.382812 21.214844 30.585938 21.511719 C 30.539062 21.65625 30.433594 21.734375 30.273438 21.746094 C 29.960938 21.71875 29.726562 21.578125 29.570312 21.316406 C 29.609375 21.21875 29.660156 21.125 29.726562 21.046875 Z M 29.726562 21.046875 "/>
</g>
<mask id="mask13">
  <g filter="url(#alpha)">
<rect x="0" y="0" width="40" height="40" style="fill:rgb(0%,0%,0%);fill-opacity:0.784314;stroke:none;"/>
  </g>
</mask>
<clipPath id="clip14">
  <rect x="0" y="0" width="40" height="40"/>
</clipPath>
<g id="surface44" clip-path="url(#clip14)">
<path style=" stroke:none;fill-rule:evenodd;fill:rgb(41.176471%,70.588235%,17.647059%);fill-opacity:1;" d="M 16.132812 22.210938 C 16.285156 22.191406 16.429688 22.214844 16.5625 22.285156 C 16.613281 22.648438 16.613281 23.011719 16.5625 23.371094 C 16.445312 23.535156 16.300781 23.5625 16.132812 23.449219 C 16.03125 23.03125 16.03125 22.617188 16.132812 22.210938 Z M 16.132812 22.210938 "/>
</g>
<mask id="mask14">
  <g filter="url(#alpha)">
<rect x="0" y="0" width="40" height="40" style="fill:rgb(0%,0%,0%);fill-opacity:0.792157;stroke:none;"/>
  </g>
</mask>
<clipPath id="clip15">
  <rect x="0" y="0" width="40" height="40"/>
</clipPath>
<g id="surface47" clip-path="url(#clip15)">
<path style=" stroke:none;fill-rule:evenodd;fill:rgb(41.176471%,70.588235%,17.647059%);fill-opacity:1;" d="M 31.679688 23.140625 C 31.851562 23.113281 31.996094 23.167969 32.109375 23.292969 C 32.160156 23.683594 32.160156 24.070312 32.109375 24.457031 C 31.945312 24.644531 31.789062 24.644531 31.640625 24.457031 C 31.578125 24.011719 31.59375 23.574219 31.679688 23.140625 Z M 31.679688 23.140625 "/>
</g>
<mask id="mask15">
  <g filter="url(#alpha)">
<rect x="0" y="0" width="40" height="40" style="fill:rgb(0%,0%,0%);fill-opacity:0.788235;stroke:none;"/>
  </g>
</mask>
<clipPath id="clip16">
  <rect x="0" y="0" width="40" height="40"/>
</clipPath>
<g id="surface50" clip-path="url(#clip16)">
<path style=" stroke:none;fill-rule:evenodd;fill:rgb(41.176471%,70.588235%,17.647059%);fill-opacity:1;" d="M 28.789062 23.914062 C 29.148438 23.828125 29.292969 23.960938 29.21875 24.300781 C 29.074219 24.535156 28.933594 24.765625 28.789062 25 C 28.390625 25.160156 28.246094 25.03125 28.359375 24.613281 C 28.503906 24.378906 28.648438 24.144531 28.789062 23.914062 Z M 28.789062 23.914062 "/>
</g>
<mask id="mask16">
  <g filter="url(#alpha)">
<rect x="0" y="0" width="40" height="40" style="fill:rgb(0%,0%,0%);fill-opacity:0.847059;stroke:none;"/>
  </g>
</mask>
<clipPath id="clip17">
  <rect x="0" y="0" width="40" height="40"/>
</clipPath>
<g id="surface53" clip-path="url(#clip17)">
<path style=" stroke:none;fill-rule:evenodd;fill:rgb(41.176471%,70.588235%,17.647059%);fill-opacity:1;" d="M 39.960938 35.773438 C 39.960938 35.929688 39.960938 36.085938 39.960938 36.242188 C 26.628906 36.242188 13.292969 36.242188 -0.0390625 36.242188 C -0.0390625 36.085938 -0.0390625 35.929688 -0.0390625 35.773438 C 13.292969 35.671875 26.628906 35.671875 39.960938 35.773438 Z M 39.960938 35.773438 "/>
</g>
<mask id="mask17">
  <g filter="url(#alpha)">
<rect x="0" y="0" width="40" height="40" style="fill:rgb(0%,0%,0%);fill-opacity:0.984314;stroke:none;"/>
  </g>
</mask>
<clipPath id="clip18">
  <rect x="0" y="0" width="40" height="40"/>
</clipPath>
<g id="surface56" clip-path="url(#clip18)">
<path style=" stroke:none;fill-rule:evenodd;fill:rgb(41.176471%,70.588235%,17.647059%);fill-opacity:1;" d="M -0.0390625 39.496094 C 7.851562 39.484375 15.742188 39.496094 23.632812 39.535156 C 23.730469 39.675781 23.730469 39.820312 23.632812 39.960938 C 15.742188 39.960938 7.851562 39.960938 -0.0390625 39.960938 C -0.0390625 39.804688 -0.0390625 39.652344 -0.0390625 39.496094 Z M -0.0390625 39.496094 "/>
</g>
<mask id="mask18">
  <g filter="url(#alpha)">
<rect x="0" y="0" width="40" height="40" style="fill:rgb(0%,0%,0%);fill-opacity:0.980392;stroke:none;"/>
  </g>
</mask>
<clipPath id="clip19">
  <rect x="0" y="0" width="40" height="40"/>
</clipPath>
<g id="surface59" clip-path="url(#clip19)">
<path style=" stroke:none;fill-rule:evenodd;fill:rgb(41.176471%,70.588235%,17.647059%);fill-opacity:1;" d="M 39.960938 39.496094 C 39.960938 39.652344 39.960938 39.804688 39.960938 39.960938 C 34.960938 39.960938 29.960938 39.960938 24.960938 39.960938 C 24.863281 39.820312 24.863281 39.675781 24.960938 39.535156 C 29.960938 39.496094 34.960938 39.484375 39.960938 39.496094 Z M 39.960938 39.496094 "/>
</g>
</defs>
<g id="surface1">
<use xlink:href="#surface5" mask="url(#mask0)"/>
<use xlink:href="#surface8" mask="url(#mask1)"/>
<use xlink:href="#surface11" mask="url(#mask2)"/>
<use xlink:href="#surface14" mask="url(#mask3)"/>
<use xlink:href="#surface17" mask="url(#mask4)"/>
<use xlink:href="#surface20" mask="url(#mask5)"/>
<use xlink:href="#surface23" mask="url(#mask6)"/>
<use xlink:href="#surface26" mask="url(#mask7)"/>
<use xlink:href="#surface29" mask="url(#mask8)"/>
<use xlink:href="#surface32" mask="url(#mask9)"/>
<use xlink:href="#surface35" mask="url(#mask10)"/>
<use xlink:href="#surface38" mask="url(#mask11)"/>
<use xlink:href="#surface41" mask="url(#mask12)"/>
<use xlink:href="#surface44" mask="url(#mask13)"/>
<use xlink:href="#surface47" mask="url(#mask14)"/>
<use xlink:href="#surface50" mask="url(#mask15)"/>
<use xlink:href="#surface53" mask="url(#mask16)"/>
<use xlink:href="#surface56" mask="url(#mask17)"/>
<use xlink:href="#surface59" mask="url(#mask18)"/>
</g>
</svg>
