<?xml version="1.0" encoding="UTF-8"?>
<svg xmlns="http://www.w3.org/2000/svg" xmlns:xlink="http://www.w3.org/1999/xlink" width="40px" height="px" viewBox="0 0 40 40" version="1.1">
<defs>
<filter id="alpha" filterUnits="objectBoundingBox" x="0%" y="0%" width="100%" height="100%">
  <feColorMatrix type="matrix" in="SourceGraphic" values="0 0 0 0 1 0 0 0 0 1 0 0 0 0 1 0 0 0 1 0"/>
</filter>
<mask id="mask0">
  <g filter="url(#alpha)">
<rect x="0" y="0" width="40" height="40" style="fill:rgb(0%,0%,0%);fill-opacity:0.937255;stroke:none;"/>
  </g>
</mask>
<clipPath id="clip1">
  <rect x="0" y="0" width="40" height="40"/>
</clipPath>
<g id="surface5" clip-path="url(#clip1)">
<path style=" stroke:none;fill-rule:evenodd;fill:rgb(41.176471%,70.588235%,17.647059%);fill-opacity:1;" d="M 29.179688 1.835938 C 33.070312 1.914062 35.84375 3.710938 37.5 7.226562 C 38.304688 9.066406 38.277344 10.890625 37.421875 12.695312 C 37.292969 12.878906 37.160156 13.058594 37.03125 13.242188 C 32.878906 17.394531 28.722656 21.550781 24.570312 25.703125 C 25.898438 25.730469 27.226562 25.753906 28.554688 25.78125 C 29.523438 26.046875 30.160156 26.660156 30.46875 27.617188 C 30.984375 29.207031 30.660156 30.601562 29.492188 31.796875 C 29.253906 31.96875 28.992188 32.097656 28.710938 32.1875 C 25.144531 32.214844 21.574219 32.238281 18.007812 32.265625 C 16.363281 33.910156 14.722656 35.550781 13.085938 37.1875 C 11.902344 37.992188 10.601562 38.277344 9.179688 38.046875 C 5.941406 37.359375 3.664062 35.496094 2.34375 32.460938 C 1.675781 30.816406 1.675781 29.175781 2.34375 27.539062 C 2.527344 27.253906 2.707031 26.964844 2.890625 26.679688 C 6.796875 22.773438 10.703125 18.867188 14.609375 14.960938 C 14.648438 13.972656 14.660156 12.980469 14.648438 11.992188 C 12.785156 11.914062 11.417969 11.054688 10.546875 9.414062 C 10.082031 8.347656 10.003906 7.253906 10.3125 6.132812 C 10.535156 5.910156 10.808594 5.792969 11.132812 5.78125 C 12.414062 5.625 13.574219 5.921875 14.609375 6.679688 C 14.476562 4.808594 15.320312 3.675781 17.148438 3.28125 C 18.5 3.035156 19.65625 3.386719 20.625 4.335938 C 20.773438 4.558594 20.90625 4.792969 21.015625 5.039062 C 21.117188 6.152344 21.167969 7.273438 21.171875 8.398438 C 23.007812 6.5625 24.84375 4.726562 26.679688 2.890625 C 27.433594 2.332031 28.265625 1.980469 29.179688 1.835938 Z M 29.179688 3.164062 C 31.53125 3.097656 33.472656 3.957031 35 5.742188 C 36.097656 6.960938 36.683594 8.394531 36.757812 10.039062 C 36.78125 11.03125 36.457031 11.890625 35.78125 12.617188 C 31.417969 16.980469 27.058594 21.339844 22.695312 25.703125 C 21.964844 25.730469 21.238281 25.753906 20.507812 25.78125 C 20.195312 25.964844 20.078125 26.238281 20.15625 26.601562 C 20.246094 26.796875 20.390625 26.941406 20.585938 27.03125 C 22.410156 27.058594 24.230469 27.082031 26.054688 27.109375 C 25.429688 28.359375 25.429688 29.609375 26.054688 30.859375 C 23.214844 30.886719 20.378906 30.910156 17.539062 30.9375 C 16.59375 31.726562 15.695312 32.574219 14.84375 33.476562 C 14.632812 29.914062 12.925781 27.347656 9.726562 25.78125 C 8.675781 25.347656 7.582031 25.113281 6.445312 25.078125 C 9.558594 21.964844 12.667969 18.855469 15.78125 15.742188 C 15.832031 15.636719 15.886719 15.535156 15.9375 15.429688 C 15.964844 12.148438 15.988281 8.867188 16.015625 5.585938 C 16.261719 5.027344 16.691406 4.703125 17.304688 4.609375 C 17.996094 4.488281 18.644531 4.59375 19.257812 4.921875 C 19.457031 5.09375 19.625 5.289062 19.765625 5.507812 C 19.816406 6.941406 19.816406 8.371094 19.765625 9.804688 C 19.324219 10.246094 18.878906 10.691406 18.4375 11.132812 C 18.175781 11.988281 18.472656 12.316406 19.335938 12.109375 C 22.125 9.292969 24.9375 6.507812 27.773438 3.75 C 28.222656 3.484375 28.691406 3.289062 29.179688 3.164062 Z M 11.445312 7.070312 C 12.84375 6.976562 13.898438 7.523438 14.609375 8.710938 C 14.648438 9.386719 14.660156 10.066406 14.648438 10.742188 C 12.554688 10.417969 11.484375 9.195312 11.445312 7.070312 Z M 6.210938 26.367188 C 9.601562 26.597656 11.933594 28.289062 13.203125 31.445312 C 13.714844 32.722656 13.664062 33.972656 13.046875 35.195312 C 12.003906 36.558594 10.636719 37.039062 8.945312 36.640625 C 6.410156 35.957031 4.628906 34.40625 3.59375 31.992188 C 3.097656 30.808594 3.042969 29.613281 3.4375 28.398438 C 4.023438 27.25 4.949219 26.574219 6.210938 26.367188 Z M 27.851562 27.070312 C 28.550781 27.023438 29.003906 27.335938 29.21875 28.007812 C 29.535156 28.894531 29.433594 29.730469 28.90625 30.507812 C 28.304688 31.066406 27.757812 31.011719 27.265625 30.351562 C 26.796875 29.441406 26.796875 28.527344 27.265625 27.617188 C 27.453125 27.417969 27.648438 27.234375 27.851562 27.070312 Z M 27.851562 27.070312 "/>
</g>
<mask id="mask1">
  <g filter="url(#alpha)">
<rect x="0" y="0" width="40" height="40" style="fill:rgb(0%,0%,0%);fill-opacity:0.929412;stroke:none;"/>
  </g>
</mask>
<clipPath id="clip2">
  <rect x="0" y="0" width="40" height="40"/>
</clipPath>
<g id="surface8" clip-path="url(#clip2)">
<path style=" stroke:none;fill-rule:evenodd;fill:rgb(41.176471%,70.588235%,17.647059%);fill-opacity:1;" d="M 29.023438 5.742188 C 29.777344 5.703125 30.050781 6.039062 29.84375 6.757812 C 28.605469 7.996094 27.371094 9.230469 26.132812 10.46875 C 25.347656 10.679688 25.023438 10.382812 25.15625 9.570312 C 26.4375 8.277344 27.726562 7 29.023438 5.742188 Z M 29.023438 5.742188 "/>
</g>
<mask id="mask2">
  <g filter="url(#alpha)">
<rect x="0" y="0" width="40" height="40" style="fill:rgb(0%,0%,0%);fill-opacity:0.898039;stroke:none;"/>
  </g>
</mask>
<clipPath id="clip3">
  <rect x="0" y="0" width="40" height="40"/>
</clipPath>
<g id="surface11" clip-path="url(#clip3)">
<path style=" stroke:none;fill-rule:evenodd;fill:rgb(41.176471%,70.588235%,17.647059%);fill-opacity:1;" d="M 30.507812 10.820312 C 31.332031 10.773438 31.605469 11.140625 31.328125 11.914062 C 30.273438 12.96875 29.21875 14.023438 28.164062 15.078125 C 27.566406 15.3125 27.203125 15.117188 27.070312 14.492188 C 27.113281 14.328125 27.179688 14.171875 27.265625 14.023438 C 28.339844 12.9375 29.417969 11.871094 30.507812 10.820312 Z M 30.507812 10.820312 "/>
</g>
<mask id="mask3">
  <g filter="url(#alpha)">
<rect x="0" y="0" width="40" height="40" style="fill:rgb(0%,0%,0%);fill-opacity:0.929412;stroke:none;"/>
  </g>
</mask>
<clipPath id="clip4">
  <rect x="0" y="0" width="40" height="40"/>
</clipPath>
<g id="surface14" clip-path="url(#clip4)">
<path style=" stroke:none;fill-rule:evenodd;fill:rgb(41.176471%,70.588235%,17.647059%);fill-opacity:1;" d="M 17.382812 17.460938 C 18.046875 17.484375 18.292969 17.820312 18.125 18.476562 C 16.289062 20.3125 14.453125 22.148438 12.617188 23.984375 C 11.753906 24.191406 11.457031 23.863281 11.71875 23.007812 C 13.578125 21.109375 15.464844 19.261719 17.382812 17.460938 Z M 17.382812 17.460938 "/>
</g>
<mask id="mask4">
  <g filter="url(#alpha)">
<rect x="0" y="0" width="40" height="40" style="fill:rgb(0%,0%,0%);fill-opacity:0.929412;stroke:none;"/>
  </g>
</mask>
<clipPath id="clip5">
  <rect x="0" y="0" width="40" height="40"/>
</clipPath>
<g id="surface17" clip-path="url(#clip5)">
<path style=" stroke:none;fill-rule:evenodd;fill:rgb(41.176471%,70.588235%,17.647059%);fill-opacity:1;" d="M 24.023438 17.460938 C 24.703125 17.546875 24.925781 17.910156 24.6875 18.554688 C 22.929688 20.3125 21.171875 22.070312 19.414062 23.828125 C 18.550781 24.03125 18.25 23.707031 18.515625 22.851562 C 20.320312 21.007812 22.15625 19.210938 24.023438 17.460938 Z M 24.023438 17.460938 "/>
</g>
<mask id="mask5">
  <g filter="url(#alpha)">
<rect x="0" y="0" width="40" height="40" style="fill:rgb(0%,0%,0%);fill-opacity:0.92549;stroke:none;"/>
  </g>
</mask>
<clipPath id="clip6">
  <rect x="0" y="0" width="40" height="40"/>
</clipPath>
<g id="surface20" clip-path="url(#clip6)">
<path style=" stroke:none;fill-rule:evenodd;fill:rgb(41.176471%,70.588235%,17.647059%);fill-opacity:1;" d="M 7.148438 27.617188 C 8.097656 27.703125 8.957031 28.027344 9.726562 28.59375 C 11.332031 29.761719 12.21875 31.339844 12.382812 33.320312 C 12.367188 34.820312 11.613281 35.601562 10.117188 35.664062 C 7.855469 35.476562 6.148438 34.410156 5 32.460938 C 4.660156 31.804688 4.414062 31.113281 4.257812 30.390625 C 4.355469 29.808594 4.695312 29.597656 5.273438 29.765625 C 5.417969 29.804688 5.507812 29.894531 5.546875 30.039062 C 6.125 32.464844 7.632812 33.898438 10.078125 34.335938 C 10.421875 34.324219 10.707031 34.195312 10.9375 33.945312 C 11.144531 33.027344 10.988281 32.167969 10.46875 31.367188 C 9.671875 30.078125 8.539062 29.230469 7.070312 28.828125 C 6.640625 28.394531 6.667969 27.992188 7.148438 27.617188 Z M 7.148438 27.617188 "/>
</g>
</defs>
<g id="surface1">
<use xlink:href="#surface5" mask="url(#mask0)"/>
<use xlink:href="#surface8" mask="url(#mask1)"/>
<use xlink:href="#surface11" mask="url(#mask2)"/>
<use xlink:href="#surface14" mask="url(#mask3)"/>
<use xlink:href="#surface17" mask="url(#mask4)"/>
<use xlink:href="#surface20" mask="url(#mask5)"/>
</g>
</svg>
