<?xml version="1.0" encoding="UTF-8"?>
<svg xmlns="http://www.w3.org/2000/svg" xmlns:xlink="http://www.w3.org/1999/xlink" width="40px" height="px" viewBox="0 0 40 40" version="1.1">
<defs>
<filter id="alpha" filterUnits="objectBoundingBox" x="0%" y="0%" width="100%" height="100%">
  <feColorMatrix type="matrix" in="SourceGraphic" values="0 0 0 0 1 0 0 0 0 1 0 0 0 0 1 0 0 0 1 0"/>
</filter>
<mask id="mask0">
  <g filter="url(#alpha)">
<rect x="0" y="0" width="40" height="40" style="fill:rgb(0%,0%,0%);fill-opacity:0.933333;stroke:none;"/>
  </g>
</mask>
<clipPath id="clip1">
  <rect x="0" y="0" width="40" height="40"/>
</clipPath>
<g id="surface5" clip-path="url(#clip1)">
<path style=" stroke:none;fill-rule:evenodd;fill:rgb(41.176471%,70.588235%,17.647059%);fill-opacity:1;" d="M 9.257812 -0.0390625 C 9.804688 -0.0390625 10.351562 -0.0390625 10.898438 -0.0390625 C 12.199219 0.296875 13.1875 1.050781 13.867188 2.226562 C 16.15625 2.394531 17.574219 3.589844 18.125 5.820312 C 18.339844 6.972656 18.121094 8.027344 17.460938 8.984375 C 18.390625 9.890625 18.859375 10.996094 18.867188 12.304688 C 20.632812 13.367188 21.375 14.929688 21.09375 16.992188 C 21.074219 17.117188 21.035156 17.234375 20.976562 17.34375 C 21.410156 17.484375 21.828125 17.664062 22.226562 17.890625 C 22.488281 18.046875 22.695312 18.253906 22.851562 18.515625 C 23.996094 18.554688 25.144531 18.566406 26.289062 18.554688 C 26.195312 17.707031 26.273438 16.875 26.523438 16.054688 C 24.511719 15.566406 23.273438 14.316406 22.8125 12.304688 C 22.773438 11.339844 22.761719 10.378906 22.773438 9.414062 C 21.886719 9.414062 21.003906 9.414062 20.117188 9.414062 C 20.117188 8.996094 20.117188 8.582031 20.117188 8.164062 C 21.003906 8.164062 21.886719 8.164062 22.773438 8.164062 C 22.828125 5.714844 24.078125 4.414062 26.523438 4.257812 C 28.460938 4.308594 29.671875 5.273438 30.15625 7.148438 C 30.265625 9.203125 30.304688 11.261719 30.273438 13.320312 C 32.171875 13.375 33.617188 14.210938 34.609375 15.820312 C 35.875 18.511719 37.101562 21.21875 38.28125 23.945312 C 39.148438 25.265625 39.710938 26.699219 39.960938 28.242188 C 39.960938 28.839844 39.960938 29.441406 39.960938 30.039062 C 39.855469 30.535156 39.714844 31.027344 39.53125 31.523438 C 39.492188 32.644531 39.480469 33.761719 39.492188 34.882812 C 39.074219 34.882812 38.660156 34.882812 38.242188 34.882812 C 38.230469 33.660156 38.242188 32.433594 38.28125 31.210938 C 38.753906 30.015625 38.832031 28.789062 38.515625 27.539062 C 38.191406 26.367188 37.695312 25.273438 37.03125 24.257812 C 36.304688 22.542969 35.535156 20.851562 34.726562 19.179688 C 33.363281 19.824219 32.007812 20.488281 30.664062 21.171875 C 30.273438 22.03125 29.882812 22.890625 29.492188 23.75 C 30.300781 25.773438 31.121094 27.789062 31.953125 29.804688 C 31.992188 33.191406 32.003906 36.574219 31.992188 39.960938 C 31.574219 39.960938 31.160156 39.960938 30.742188 39.960938 C 30.753906 36.679688 30.742188 33.398438 30.703125 30.117188 C 30.027344 28.449219 29.347656 26.785156 28.671875 25.117188 C 28.238281 25.589844 27.703125 25.886719 27.070312 26.015625 C 24.542969 26.054688 22.019531 26.066406 19.492188 26.054688 C 19.382812 27.984375 18.445312 29.339844 16.679688 30.117188 C 16.902344 31.773438 16.355469 33.117188 15.039062 34.140625 C 14.292969 34.589844 13.484375 34.785156 12.617188 34.726562 C 12.617188 36.472656 12.617188 38.214844 12.617188 39.960938 C 12.199219 39.960938 11.785156 39.960938 11.367188 39.960938 C 11.390625 38.550781 11.363281 37.144531 11.289062 35.742188 C 11.328125 34.488281 11.421875 33.238281 11.5625 31.992188 C 11.675781 31.1875 11.882812 30.40625 12.1875 29.648438 C 12.519531 28.933594 12.882812 28.253906 13.28125 27.617188 C 13.160156 27.414062 12.992188 27.324219 12.773438 27.34375 C 12.265625 27.792969 11.769531 28.261719 11.289062 28.75 C 10.742188 28.800781 10.195312 28.800781 9.648438 28.75 C 9.3125 28.066406 8.988281 27.375 8.671875 26.679688 C 8.277344 26.898438 7.859375 27.054688 7.421875 27.148438 C 7.921875 28.753906 8.3125 30.394531 8.59375 32.070312 C 8.699219 33.5 8.738281 34.933594 8.710938 36.367188 C 8.292969 36.367188 7.878906 36.367188 7.460938 36.367188 C 7.488281 35.714844 7.460938 35.0625 7.382812 34.414062 C 5.335938 34.464844 4.019531 33.5 3.4375 31.523438 C 3.410156 31.105469 3.386719 30.691406 3.359375 30.273438 C 0.992188 29.199219 0.09375 27.386719 0.664062 24.84375 C 0.3125 24.351562 0.078125 23.820312 -0.0390625 23.242188 C -0.0390625 22.746094 -0.0390625 22.253906 -0.0390625 21.757812 C 0.179688 20.714844 0.6875 19.828125 1.484375 19.101562 C 1.414062 18.066406 1.632812 17.101562 2.148438 16.210938 C 1.128906 14.375 1.234375 12.601562 2.460938 10.898438 C 1.253906 9.160156 1.214844 7.390625 2.34375 5.585938 C 3.175781 4.421875 4.308594 3.847656 5.742188 3.867188 C 6.039062 1.773438 7.210938 0.46875 9.257812 -0.0390625 Z M 9.960938 1.132812 C 11.554688 1.21875 12.570312 2.023438 13.007812 3.554688 C 14.988281 3.289062 16.277344 4.09375 16.875 5.976562 C 17.039062 7.261719 16.636719 8.328125 15.664062 9.179688 C 16.398438 9.613281 16.957031 10.210938 17.34375 10.976562 C 17.539062 11.671875 17.589844 12.375 17.5 13.085938 C 19.316406 13.730469 20.058594 14.980469 19.726562 16.835938 C 18.34375 16.292969 16.976562 15.722656 15.625 15.117188 C 15.027344 12.929688 14.425781 10.742188 13.828125 8.554688 C 13.199219 7.101562 12.09375 6.460938 10.507812 6.640625 C 10.175781 6.636719 9.890625 6.742188 9.648438 6.953125 C 10.230469 9.046875 10.800781 11.144531 11.367188 13.242188 C 11.339844 13.292969 11.316406 13.347656 11.289062 13.398438 C 9.1875 12.523438 7.074219 11.664062 4.960938 10.820312 C 4.910156 10.847656 4.855469 10.871094 4.804688 10.898438 C 4.070312 12.59375 4.433594 13.988281 5.898438 15.078125 C 8.175781 15.984375 10.425781 16.933594 12.65625 17.929688 C 13.285156 20.308594 13.949219 22.679688 14.648438 25.039062 C 14.613281 25.371094 14.613281 25.710938 14.648438 26.054688 C 15.847656 26.054688 17.042969 26.054688 18.242188 26.054688 C 18.164062 27.316406 17.566406 28.242188 16.445312 28.828125 C 15.902344 29.023438 15.355469 29.179688 14.804688 29.296875 C 15.71875 30.617188 15.613281 31.839844 14.492188 32.96875 C 13.929688 33.355469 13.304688 33.527344 12.617188 33.476562 C 12.738281 31.234375 13.546875 29.28125 15.039062 27.617188 C 14.382812 26.871094 13.667969 26.191406 12.890625 25.585938 C 12.152344 26.195312 11.4375 26.832031 10.742188 27.5 C 10.628906 27.5625 10.523438 27.546875 10.429688 27.460938 C 10.199219 26.910156 9.941406 26.378906 9.648438 25.859375 C 10.039062 25.46875 10.351562 25.027344 10.585938 24.53125 C 10.574219 24.472656 10.546875 24.417969 10.507812 24.375 C 10.167969 24.230469 9.832031 24.089844 9.492188 23.945312 C 9.167969 24.476562 8.777344 24.957031 8.320312 25.390625 C 7.121094 26.152344 6.015625 26.035156 5 25.039062 C 4.878906 24.796875 4.722656 24.585938 4.53125 24.414062 C 4.160156 24.53125 3.808594 24.6875 3.476562 24.882812 C 3.707031 25.4375 4.046875 25.921875 4.492188 26.328125 C 4.996094 26.65625 5.515625 26.945312 6.054688 27.1875 C 6.738281 29.128906 7.207031 31.121094 7.460938 33.164062 C 6.042969 33.269531 5.121094 32.644531 4.6875 31.289062 C 4.636719 30.949219 4.636719 30.613281 4.6875 30.273438 C 4.816406 29.96875 4.894531 29.65625 4.921875 29.335938 C 3.734375 29.210938 2.796875 28.664062 2.109375 27.695312 C 1.554688 26.691406 1.539062 25.675781 2.070312 24.648438 C 1.003906 23.34375 0.9375 21.988281 1.875 20.585938 C 3.257812 19.175781 4.753906 19.046875 6.367188 20.195312 C 6.644531 19.90625 6.902344 19.605469 7.148438 19.296875 C 6.351562 18.53125 5.386719 18.152344 4.257812 18.164062 C 3.769531 18.140625 3.300781 18.21875 2.851562 18.398438 C 2.773438 18.050781 2.8125 17.714844 2.96875 17.382812 C 3.15625 16.9375 3.402344 16.535156 3.710938 16.171875 C 2.511719 14.8125 2.394531 13.367188 3.359375 11.835938 C 3.667969 11.519531 3.992188 11.234375 4.335938 10.976562 C 2.859375 9.84375 2.457031 8.414062 3.125 6.679688 C 3.722656 5.644531 4.621094 5.125 5.820312 5.117188 C 5.984375 6.023438 6.402344 6.792969 7.070312 7.421875 C 7.148438 7.472656 7.226562 7.472656 7.304688 7.421875 C 7.539062 7.132812 7.773438 6.847656 8.007812 6.5625 C 7.367188 5.902344 7 5.109375 6.914062 4.179688 C 7.179688 2.40625 8.195312 1.390625 9.960938 1.132812 Z M 25.898438 5.507812 C 27.832031 5.359375 28.871094 6.242188 29.023438 8.164062 C 27.355469 8.164062 25.691406 8.164062 24.023438 8.164062 C 24.015625 6.820312 24.640625 5.933594 25.898438 5.507812 Z M 11.210938 7.851562 C 11.84375 7.953125 12.300781 8.292969 12.578125 8.867188 C 13.214844 11.101562 13.828125 13.339844 14.414062 15.585938 C 14.0625 15.605469 13.734375 15.710938 13.4375 15.898438 C 12.671875 13.222656 11.929688 10.539062 11.210938 7.851562 Z M 24.023438 9.414062 C 25.691406 9.414062 27.355469 9.414062 29.023438 9.414062 C 29.023438 10.792969 29.023438 12.175781 29.023438 13.554688 C 28.308594 13.769531 27.710938 14.160156 27.226562 14.726562 C 25.796875 14.707031 24.792969 14.027344 24.21875 12.695312 C 24.15625 12.464844 24.105469 12.230469 24.0625 11.992188 C 24.023438 11.132812 24.011719 10.273438 24.023438 9.414062 Z M 5.664062 12.460938 C 7.691406 13.292969 9.722656 14.125 11.757812 14.960938 C 11.945312 15.378906 12.101562 15.808594 12.226562 16.25 C 10.285156 15.53125 8.355469 14.75 6.445312 13.90625 C 5.949219 13.550781 5.6875 13.070312 5.664062 12.460938 Z M 27.617188 16.914062 C 27.832031 15.621094 28.585938 14.851562 29.882812 14.609375 C 31.34375 14.5 32.5 15.03125 33.359375 16.210938 C 33.644531 16.765625 33.917969 17.324219 34.179688 17.890625 C 34.167969 17.949219 34.140625 18.003906 34.101562 18.046875 C 33.25 18.464844 32.402344 18.894531 31.5625 19.335938 C 31.730469 18.90625 31.886719 18.464844 32.03125 18.007812 C 32.074219 16.125 31.152344 15.253906 29.257812 15.390625 C 28.46875 15.644531 27.921875 16.152344 27.617188 16.914062 Z M 29.570312 16.601562 C 30.402344 16.5625 30.808594 16.953125 30.78125 17.773438 C 29.847656 19.894531 28.882812 22.003906 27.890625 24.101562 C 27.648438 24.449219 27.324219 24.667969 26.914062 24.765625 C 24.570312 24.804688 22.226562 24.816406 19.882812 24.804688 C 19.882812 24.179688 19.882812 23.554688 19.882812 22.929688 C 21.964844 22.941406 24.050781 22.929688 26.132812 22.890625 C 27.09375 20.957031 28.042969 19.015625 28.984375 17.070312 C 29.152344 16.863281 29.347656 16.707031 29.570312 16.601562 Z M 16.054688 16.679688 C 17.847656 17.429688 19.644531 18.171875 21.445312 18.90625 C 21.027344 19.089844 20.636719 19.3125 20.273438 19.570312 C 18.957031 19.074219 17.667969 18.527344 16.40625 17.929688 C 16.289062 17.511719 16.171875 17.09375 16.054688 16.679688 Z M 14.335938 16.835938 C 14.609375 16.890625 14.804688 17.046875 14.921875 17.304688 C 15.367188 18.949219 15.820312 20.589844 16.289062 22.226562 C 15.957031 22.441406 15.65625 22.703125 15.390625 23.007812 C 14.871094 21.246094 14.375 19.472656 13.90625 17.695312 C 13.765625 17.253906 13.90625 16.96875 14.335938 16.835938 Z M 16.835938 19.648438 C 16.839844 19.605469 16.867188 19.578125 16.914062 19.570312 C 17.820312 19.933594 18.707031 20.324219 19.570312 20.742188 C 19.441406 21.042969 19.363281 21.355469 19.335938 21.679688 C 18.710938 21.648438 18.101562 21.699219 17.5 21.835938 C 17.277344 21.097656 17.054688 20.371094 16.835938 19.648438 Z M 22.773438 19.804688 C 22.929688 19.804688 23.085938 19.804688 23.242188 19.804688 C 23.242188 20.429688 23.242188 21.054688 23.242188 21.679688 C 22.355469 21.707031 21.46875 21.679688 20.585938 21.601562 C 20.765625 20.945312 21.15625 20.464844 21.757812 20.15625 C 22.097656 20.011719 22.4375 19.894531 22.773438 19.804688 Z M 24.492188 19.804688 C 25.066406 19.777344 25.640625 19.804688 26.210938 19.882812 C 25.917969 20.445312 25.644531 21.019531 25.390625 21.601562 C 25.097656 21.675781 24.800781 21.703125 24.492188 21.679688 C 24.492188 21.054688 24.492188 20.429688 24.492188 19.804688 Z M 18.085938 22.929688 C 18.242188 22.929688 18.398438 22.929688 18.554688 22.929688 C 18.554688 23.554688 18.554688 24.179688 18.554688 24.804688 C 17.667969 24.832031 16.78125 24.804688 15.898438 24.726562 C 16.078125 24.070312 16.46875 23.589844 17.070312 23.28125 C 17.410156 23.136719 17.75 23.019531 18.085938 22.929688 Z M 18.085938 22.929688 "/>
</g>
<mask id="mask1">
  <g filter="url(#alpha)">
<rect x="0" y="0" width="40" height="40" style="fill:rgb(0%,0%,0%);fill-opacity:0.882353;stroke:none;"/>
  </g>
</mask>
<clipPath id="clip2">
  <rect x="0" y="0" width="40" height="40"/>
</clipPath>
<g id="surface8" clip-path="url(#clip2)">
<path style=" stroke:none;fill-rule:evenodd;fill:rgb(41.176471%,70.588235%,17.647059%);fill-opacity:1;" d="M 7.773438 21.210938 C 8.191406 21.210938 8.605469 21.210938 9.023438 21.210938 C 9.023438 21.628906 9.023438 22.042969 9.023438 22.460938 C 8.605469 22.460938 8.191406 22.460938 7.773438 22.460938 C 7.773438 22.042969 7.773438 21.628906 7.773438 21.210938 Z M 7.773438 21.210938 "/>
</g>
<mask id="mask2">
  <g filter="url(#alpha)">
<rect x="0" y="0" width="40" height="40" style="fill:rgb(0%,0%,0%);fill-opacity:0.882353;stroke:none;"/>
  </g>
</mask>
<clipPath id="clip3">
  <rect x="0" y="0" width="40" height="40"/>
</clipPath>
<g id="surface11" clip-path="url(#clip3)">
<path style=" stroke:none;fill-rule:evenodd;fill:rgb(41.176471%,70.588235%,17.647059%);fill-opacity:1;" d="M 10.117188 21.210938 C 10.535156 21.210938 10.949219 21.210938 11.367188 21.210938 C 11.367188 21.628906 11.367188 22.042969 11.367188 22.460938 C 10.949219 22.460938 10.535156 22.460938 10.117188 22.460938 C 10.117188 22.042969 10.117188 21.628906 10.117188 21.210938 Z M 10.117188 21.210938 "/>
</g>
<mask id="mask3">
  <g filter="url(#alpha)">
<rect x="0" y="0" width="40" height="40" style="fill:rgb(0%,0%,0%);fill-opacity:0.878431;stroke:none;"/>
  </g>
</mask>
<clipPath id="clip4">
  <rect x="0" y="0" width="40" height="40"/>
</clipPath>
<g id="surface14" clip-path="url(#clip4)">
<path style=" stroke:none;fill-rule:evenodd;fill:rgb(41.176471%,70.588235%,17.647059%);fill-opacity:1;" d="M 34.960938 39.960938 C 34.542969 39.960938 34.128906 39.960938 33.710938 39.960938 C 33.621094 36.503906 33.605469 33.039062 33.671875 29.570312 C 34.09375 29.496094 34.523438 29.46875 34.960938 29.492188 C 34.960938 32.980469 34.960938 36.472656 34.960938 39.960938 Z M 34.960938 39.960938 "/>
</g>
<mask id="mask4">
  <g filter="url(#alpha)">
<rect x="0" y="0" width="40" height="40" style="fill:rgb(0%,0%,0%);fill-opacity:0.92549;stroke:none;"/>
  </g>
</mask>
<clipPath id="clip5">
  <rect x="0" y="0" width="40" height="40"/>
</clipPath>
<g id="surface17" clip-path="url(#clip5)">
<path style=" stroke:none;fill-rule:evenodd;fill:rgb(41.176471%,70.588235%,17.647059%);fill-opacity:1;" d="M 39.492188 39.960938 C 39.074219 39.960938 38.660156 39.960938 38.242188 39.960938 C 38.242188 38.632812 38.242188 37.304688 38.242188 35.976562 C 38.660156 35.976562 39.074219 35.976562 39.492188 35.976562 C 39.492188 37.304688 39.492188 38.632812 39.492188 39.960938 Z M 39.492188 39.960938 "/>
</g>
<mask id="mask5">
  <g filter="url(#alpha)">
<rect x="0" y="0" width="40" height="40" style="fill:rgb(0%,0%,0%);fill-opacity:0.929412;stroke:none;"/>
  </g>
</mask>
<clipPath id="clip6">
  <rect x="0" y="0" width="40" height="40"/>
</clipPath>
<g id="surface20" clip-path="url(#clip6)">
<path style=" stroke:none;fill-rule:evenodd;fill:rgb(41.176471%,70.588235%,17.647059%);fill-opacity:1;" d="M 8.710938 39.960938 C 8.292969 39.960938 7.878906 39.960938 7.460938 39.960938 C 7.460938 39.128906 7.460938 38.292969 7.460938 37.460938 C 7.878906 37.460938 8.292969 37.460938 8.710938 37.460938 C 8.710938 38.292969 8.710938 39.128906 8.710938 39.960938 Z M 8.710938 39.960938 "/>
</g>
</defs>
<g id="surface1">
<use xlink:href="#surface5" mask="url(#mask0)"/>
<use xlink:href="#surface8" mask="url(#mask1)"/>
<use xlink:href="#surface11" mask="url(#mask2)"/>
<use xlink:href="#surface14" mask="url(#mask3)"/>
<use xlink:href="#surface17" mask="url(#mask4)"/>
<use xlink:href="#surface20" mask="url(#mask5)"/>
</g>
</svg>
