<?xml version="1.0" encoding="UTF-8"?>
<svg xmlns="http://www.w3.org/2000/svg" xmlns:xlink="http://www.w3.org/1999/xlink" width="40px" height="px" viewBox="0 0 40 40" version="1.1">
<defs>
<filter id="alpha" filterUnits="objectBoundingBox" x="0%" y="0%" width="100%" height="100%">
  <feColorMatrix type="matrix" in="SourceGraphic" values="0 0 0 0 1 0 0 0 0 1 0 0 0 0 1 0 0 0 1 0"/>
</filter>
<mask id="mask0">
  <g filter="url(#alpha)">
<rect x="0" y="0" width="40" height="40" style="fill:rgb(0%,0%,0%);fill-opacity:0.921569;stroke:none;"/>
  </g>
</mask>
<clipPath id="clip1">
  <rect x="0" y="0" width="40" height="40"/>
</clipPath>
<g id="surface5" clip-path="url(#clip1)">
<path style=" stroke:none;fill-rule:evenodd;fill:rgb(41.176471%,70.588235%,17.647059%);fill-opacity:1;" d="M 39.960938 22.695312 C 39.960938 23.035156 39.960938 23.371094 39.960938 23.710938 C 39.046875 24.953125 38.082031 26.164062 37.070312 27.34375 C 36.550781 27.640625 36.003906 27.691406 35.429688 27.5 C 32.5 25.136719 29.558594 22.792969 26.601562 20.46875 C 24.308594 19.089844 22.019531 17.707031 19.726562 16.328125 C 17.917969 14.964844 16.136719 13.570312 14.375 12.148438 C 14.167969 12.25 14.011719 12.40625 13.90625 12.617188 C 13.566406 15.328125 13.203125 18.039062 12.8125 20.742188 C 12.632812 21.078125 12.359375 21.300781 11.992188 21.40625 C 7.792969 21.472656 4.289062 19.949219 1.484375 16.835938 C 1.082031 16.34375 0.714844 15.820312 0.390625 15.273438 C 0.03125 14.695312 0.03125 14.121094 0.390625 13.554688 C 2.738281 11.285156 5.054688 8.996094 7.34375 6.679688 C 7.394531 6.601562 7.394531 6.523438 7.34375 6.445312 C 6.707031 5.960938 6.523438 5.335938 6.796875 4.570312 C 7.574219 3.507812 8.382812 2.464844 9.21875 1.445312 C 9.96875 0.609375 10.789062 0.53125 11.679688 1.210938 C 11.90625 0.96875 12.167969 0.773438 12.460938 0.625 C 13.148438 0.460938 13.75 0.617188 14.257812 1.09375 C 15.753906 2.332031 17.253906 3.566406 18.75 4.804688 C 19.140625 5.480469 19.101562 6.132812 18.632812 6.757812 C 20.667969 8.519531 22.800781 10.144531 25.039062 11.640625 C 28.730469 13.519531 32.105469 15.847656 35.15625 18.632812 C 35.316406 19.457031 34.992188 19.730469 34.179688 19.453125 C 31.042969 16.683594 27.605469 14.339844 23.867188 12.421875 C 21.773438 10.976562 19.753906 9.425781 17.8125 7.773438 C 16.914062 8.878906 16.015625 9.988281 15.117188 11.09375 C 16.949219 12.613281 18.824219 14.070312 20.742188 15.46875 C 22.472656 16.503906 24.21875 17.519531 25.976562 18.515625 C 26.445312 18.828125 26.914062 19.140625 27.382812 19.453125 C 30.246094 21.746094 33.113281 24.035156 35.976562 26.328125 C 36.101562 26.382812 36.21875 26.371094 36.328125 26.289062 C 37.152344 25.28125 37.949219 24.253906 38.710938 23.203125 C 38.609375 23.023438 38.480469 22.867188 38.320312 22.734375 C 37.550781 22.121094 36.785156 21.511719 36.015625 20.898438 C 35.78125 20.144531 36.054688 19.820312 36.835938 19.921875 C 37.699219 20.65625 38.585938 21.359375 39.492188 22.03125 C 39.679688 22.238281 39.835938 22.457031 39.960938 22.695312 Z M 12.851562 1.835938 C 12.957031 1.824219 13.0625 1.835938 13.164062 1.875 C 14.574219 3.050781 16.007812 4.195312 17.460938 5.3125 C 17.597656 5.421875 17.699219 5.550781 17.773438 5.703125 C 16.066406 7.804688 14.386719 9.925781 12.734375 12.070312 C 12.480469 13.816406 12.234375 15.558594 11.992188 17.304688 C 11.375 17.335938 10.761719 17.257812 10.15625 17.070312 C 9.652344 17.191406 9.46875 17.503906 9.609375 18.007812 C 9.675781 18.085938 9.738281 18.164062 9.804688 18.242188 C 10.460938 18.472656 11.140625 18.601562 11.835938 18.632812 C 11.777344 19.152344 11.722656 19.671875 11.679688 20.195312 C 7.839844 20.078125 4.675781 18.570312 2.1875 15.664062 C 1.890625 15.292969 1.644531 14.886719 1.445312 14.453125 C 1.765625 14.054688 2.117188 13.675781 2.5 13.320312 C 3.863281 15.167969 5.59375 16.5625 7.695312 17.5 C 8.21875 17.617188 8.503906 17.40625 8.554688 16.875 C 8.539062 16.6875 8.460938 16.53125 8.320312 16.40625 C 6.332031 15.503906 4.691406 14.175781 3.398438 12.421875 C 4.972656 10.925781 6.519531 9.402344 8.046875 7.851562 C 9.636719 5.832031 11.238281 3.828125 12.851562 1.835938 Z M 10.429688 1.992188 C 10.632812 1.996094 10.789062 2.089844 10.898438 2.265625 C 10.003906 3.339844 9.117188 4.417969 8.242188 5.507812 C 7.953125 5.390625 7.886719 5.210938 8.046875 4.960938 C 8.859375 3.984375 9.65625 2.992188 10.429688 1.992188 Z M 10.429688 1.992188 "/>
</g>
<mask id="mask1">
  <g filter="url(#alpha)">
<rect x="0" y="0" width="40" height="40" style="fill:rgb(0%,0%,0%);fill-opacity:0.941176;stroke:none;"/>
  </g>
</mask>
<clipPath id="clip2">
  <rect x="0" y="0" width="40" height="40"/>
</clipPath>
<g id="surface8" clip-path="url(#clip2)">
<path style=" stroke:none;fill-rule:evenodd;fill:rgb(41.176471%,70.588235%,17.647059%);fill-opacity:1;" d="M 39.960938 36.835938 C 39.960938 37.488281 39.960938 38.136719 39.960938 38.789062 C 39.84375 39.074219 39.636719 39.269531 39.335938 39.375 C 26.417969 39.425781 13.503906 39.425781 0.585938 39.375 C 0.285156 39.269531 0.078125 39.074219 -0.0390625 38.789062 C -0.0390625 38.136719 -0.0390625 37.488281 -0.0390625 36.835938 C 0.078125 36.550781 0.285156 36.355469 0.585938 36.25 C 2.957031 36.199219 5.324219 36.199219 7.695312 36.25 C 8.152344 36.714844 8.097656 37.105469 7.539062 37.421875 C 5.429688 37.460938 3.320312 37.472656 1.210938 37.460938 C 1.210938 37.695312 1.210938 37.929688 1.210938 38.164062 C 3.527344 38.175781 5.847656 38.164062 8.164062 38.125 C 9.316406 37.246094 10.226562 36.164062 10.898438 34.882812 C 10.871094 34.789062 10.832031 34.789062 10.78125 34.882812 C 10.472656 35.707031 9.886719 36.035156 9.023438 35.859375 C 7.957031 34.949219 7.5 33.792969 7.65625 32.382812 C 7.742188 32.125 7.796875 31.863281 7.8125 31.601562 C 5.28125 33.425781 2.792969 33.359375 0.351562 31.40625 C 0.199219 31.214844 0.0703125 31.019531 -0.0390625 30.820312 C -0.0390625 30.507812 -0.0390625 30.195312 -0.0390625 29.882812 C 0.828125 28.828125 1.949219 28.164062 3.320312 27.890625 C 5.308594 27.648438 7 28.25 8.398438 29.6875 C 9.570312 29.726562 10.742188 29.738281 11.914062 29.726562 C 11.902344 28.476562 11.914062 27.226562 11.953125 25.976562 C 12.144531 25.613281 12.445312 25.390625 12.851562 25.3125 C 13.621094 25.117188 14.402344 24.988281 15.195312 24.921875 C 18.476562 24.699219 21.757812 24.671875 25.039062 24.84375 C 26.089844 24.898438 27.132812 25.03125 28.164062 25.234375 C 28.71875 25.296875 29.125 25.570312 29.375 26.054688 C 29.378906 28.140625 29.433594 30.222656 29.53125 32.304688 C 29.773438 33.738281 30.332031 35.027344 31.210938 36.171875 C 33.917969 36.199219 36.628906 36.222656 39.335938 36.25 C 39.636719 36.355469 39.84375 36.550781 39.960938 36.835938 Z M 18.007812 25.976562 C 20.902344 25.917969 23.792969 26.007812 26.679688 26.25 C 25.828125 26.394531 24.96875 26.472656 24.101562 26.484375 C 21.785156 26.535156 19.464844 26.535156 17.148438 26.484375 C 16.304688 26.46875 15.472656 26.390625 14.648438 26.25 C 15.777344 26.136719 16.898438 26.046875 18.007812 25.976562 Z M 13.164062 27.382812 C 15.652344 27.710938 18.152344 27.839844 20.664062 27.773438 C 23.175781 27.839844 25.675781 27.710938 28.164062 27.382812 C 28.152344 28.894531 28.164062 30.402344 28.203125 31.914062 C 28.464844 34.351562 29.46875 36.421875 31.210938 38.125 C 24.179688 38.175781 17.148438 38.175781 10.117188 38.125 C 12.050781 36.144531 13.066406 33.761719 13.164062 30.976562 C 13.710938 30.988281 14.257812 30.976562 14.804688 30.9375 C 15.027344 30.828125 15.132812 30.644531 15.117188 30.390625 C 15.125 30.171875 15.046875 29.988281 14.882812 29.84375 C 14.316406 29.734375 13.742188 29.695312 13.164062 29.726562 C 13.164062 28.945312 13.164062 28.164062 13.164062 27.382812 Z M 3.554688 29.101562 C 4.554688 29 5.492188 29.195312 6.367188 29.6875 C 5.792969 29.714844 5.222656 29.738281 4.648438 29.765625 C 4.238281 30.019531 4.148438 30.371094 4.375 30.820312 C 4.433594 30.871094 4.5 30.910156 4.570312 30.9375 C 5.195312 30.964844 5.820312 30.988281 6.445312 31.015625 C 4.695312 31.996094 3.027344 31.867188 1.445312 30.625 C 1.300781 30.539062 1.238281 30.421875 1.25 30.273438 C 1.953125 29.746094 2.722656 29.355469 3.554688 29.101562 Z M 11.054688 34.492188 C 11.523438 33.308594 11.445312 32.164062 10.820312 31.054688 C 11.179688 30.976562 11.546875 30.949219 11.914062 30.976562 C 11.875 32.21875 11.589844 33.390625 11.054688 34.492188 Z M 9.414062 31.367188 C 10.320312 32.378906 10.34375 33.417969 9.492188 34.492188 C 8.882812 33.769531 8.738281 32.964844 9.0625 32.070312 C 9.183594 31.832031 9.300781 31.597656 9.414062 31.367188 Z M 32.382812 37.539062 C 34.480469 37.460938 36.589844 37.433594 38.710938 37.460938 C 38.710938 37.695312 38.710938 37.929688 38.710938 38.164062 C 36.863281 38.175781 35.011719 38.164062 33.164062 38.125 C 32.914062 37.914062 32.652344 37.71875 32.382812 37.539062 Z M 32.382812 37.539062 "/>
</g>
</defs>
<g id="surface1">
<use xlink:href="#surface5" mask="url(#mask0)"/>
<use xlink:href="#surface8" mask="url(#mask1)"/>
</g>
</svg>
